<?xml version="1.0" standalone="no"?>
<!DOCTYPE svg PUBLIC "-//W3C//DTD SVG 20010904//EN"
 "http://www.w3.org/TR/2001/REC-SVG-20010904/DTD/svg10.dtd">
<svg version="1.0" xmlns="http://www.w3.org/2000/svg"
 width="1024.000000pt" height="1024.000000pt" viewBox="0 0 1024.000000 1024.000000"
 preserveAspectRatio="xMidYMid meet">

<g transform="translate(0.000000,1024.000000) scale(0.100000,-0.100000)"
fill="#000000" stroke="none">
<path d="M3415 9529 c48 -70 59 -116 59 -249 l1 -115 -50 -24 c-46 -22 -180
-94 -245 -131 -73 -43 -128 -102 -166 -180 -43 -90 -63 -102 -127 -75 -20 8
-56 15 -81 15 l-44 0 -28 60 c-29 62 -54 74 -29 13 19 -45 20 -43 -12 -44 -21
-1 -23 -3 -8 -6 45 -10 51 -15 30 -23 -34 -13 -175 -12 -175 1 0 12 -29 38
-44 39 -5 0 -3 -7 4 -15 7 -9 11 -18 8 -20 -2 -3 -39 2 -82 9 -64 11 -89 11
-131 1 -85 -19 -203 -95 -231 -147 -11 -21 -22 -28 -44 -28 -20 0 -28 -4 -24
-13 3 -8 15 -13 27 -13 17 1 22 -4 20 -24 -6 -84 -5 -208 1 -227 9 -27 -5 -30
-25 -7 -14 17 -69 48 -69 39 0 -4 15 -26 34 -51 22 -29 32 -51 29 -64 -7 -27
-22 -25 -55 7 -34 33 -48 23 -24 -17 22 -38 18 -38 -25 1 -56 51 -99 82 -105
76 -3 -3 19 -33 50 -66 31 -33 56 -65 56 -71 0 -6 -19 -7 -47 -4 l-48 6 41
-26 c77 -48 69 -53 -99 -59 -172 -5 -240 -21 -357 -83 -63 -33 -140 -102 -140
-126 0 -4 26 13 57 39 89 71 208 117 360 138 51 7 53 6 64 -22 21 -57 22 -80
2 -86 -21 -7 -139 -71 -203 -112 -79 -49 -171 -127 -211 -178 -47 -58 -50 -92
-16 -169 29 -65 80 -111 167 -151 36 -17 84 -47 107 -68 22 -21 60 -47 83 -59
63 -32 185 -60 261 -60 l68 0 -1 -62 c0 -35 7 -88 16 -119 9 -31 16 -61 15
-65 -1 -5 0 -16 4 -24 3 -8 13 -40 23 -70 70 -220 261 -542 355 -597 17 -10
44 -43 61 -73 17 -30 44 -77 61 -103 16 -26 27 -50 24 -53 -3 -3 -21 -1 -39 4
-18 6 -52 14 -76 17 -24 4 -70 18 -103 31 -70 29 -120 30 -174 5 -83 -38 -100
-80 -127 -322 -27 -233 -21 -288 39 -376 50 -73 127 -128 265 -188 89 -39 117
-57 165 -106 72 -74 127 -102 199 -102 41 0 63 6 94 27 22 14 42 26 44 26 3 0
12 -26 21 -57 31 -106 81 -200 133 -251 105 -103 438 -279 627 -333 84 -24
270 -50 293 -42 15 6 15 5 3 -10 -7 -9 -18 -17 -23 -17 -5 0 -23 -10 -41 -22
-18 -13 -34 -24 -36 -25 -2 -2 -1 -6 2 -9 4 -4 39 10 79 29 58 29 89 38 148
42 41 2 65 1 52 -3 -13 -4 -22 -11 -20 -16 2 -5 -4 -13 -12 -17 -208 -120
-235 -138 -153 -104 19 8 37 15 39 15 8 0 4 -36 -5 -45 -5 -6 -5 -19 -1 -30 9
-20 9 -20 9 0 1 30 29 65 46 59 10 -4 15 0 15 10 0 9 8 20 18 23 9 4 20 11 24
16 4 6 13 3 24 -8 18 -17 17 -19 -26 -56 -39 -34 -46 -36 -52 -21 -4 12 -7 7
-7 -15 -1 -24 -6 -33 -18 -33 -14 0 -15 -2 -4 -9 9 -6 11 -19 7 -42 l-7 -34
23 42 c18 34 79 93 95 93 2 0 1 -11 -3 -24 -5 -22 -3 -24 18 -19 17 3 19 2 9
-5 -7 -5 -11 -14 -8 -19 3 -5 -10 -27 -29 -48 -42 -48 -97 -152 -119 -228 -13
-45 -15 -75 -9 -135 10 -102 11 -241 2 -235 -8 4 -12 -13 -8 -32 7 -33 11
-109 5 -103 -3 3 -7 20 -9 36 -1 17 -7 36 -13 44 -19 23 -24 57 -13 78 13 25
-1 26 -23 2 -24 -26 -21 -78 8 -140 23 -50 24 -57 15 -160 -9 -104 -28 -254
-50 -397 -9 -59 -52 -249 -66 -294 -3 -9 -8 -11 -14 -5 -5 5 5 71 25 164 19
85 34 164 34 175 0 31 -36 -86 -68 -223 -25 -106 -35 -131 -71 -178 -74 -99
-95 -176 -69 -266 28 -103 279 -292 365 -275 35 6 30 -13 -11 -46 -20 -16 -47
-46 -62 -68 -25 -38 -26 -43 -20 -155 l5 -116 -36 -15 c-20 -8 -62 -19 -93
-23 -59 -9 -86 -22 -155 -76 -23 -18 -65 -44 -95 -57 -30 -13 -81 -48 -114
-78 -33 -30 -79 -69 -102 -87 l-42 -33 -25 44 c-14 24 -26 46 -26 50 0 3 -27
63 -61 134 -34 70 -81 171 -106 223 -25 52 -67 140 -93 195 -105 219 -251 526
-303 640 -30 66 -93 201 -140 300 -46 99 -132 282 -190 407 -150 320 -230 475
-274 532 -39 50 -126 110 -177 122 -44 11 -24 -11 39 -42 67 -33 102 -67 159
-154 43 -65 76 -133 283 -580 52 -113 121 -261 155 -330 87 -180 342 -730 383
-826 10 -25 14 -51 10 -65 -5 -20 -4 -21 5 -9 9 12 10 9 6 -15 -4 -19 -3 -25
2 -16 8 11 11 11 18 0 30 -47 66 -127 80 -177 9 -31 21 -61 28 -67 19 -15 80
-131 111 -210 32 -82 89 -188 110 -205 8 -7 15 -19 15 -26 0 -8 11 -16 25 -20
14 -3 22 -10 19 -15 -3 -5 6 -9 20 -9 14 0 26 -5 26 -11 0 -6 -7 -9 -15 -5 -8
3 -15 1 -15 -4 0 -6 7 -10 15 -10 8 0 12 -6 9 -13 -2 -7 4 -24 16 -37 16 -18
17 -25 7 -34 -7 -6 -11 -10 -8 -9 6 4 31 -25 31 -36 0 -6 5 -11 11 -11 5 0 8
-4 4 -9 -3 -5 0 -16 7 -23 23 -24 39 -59 33 -68 -4 -6 -2 -10 4 -10 6 0 20
-17 30 -39 16 -30 27 -40 51 -43 17 -3 33 -1 36 4 3 4 0 8 -5 8 -6 0 -11 7
-11 15 0 12 13 15 59 15 32 0 87 2 122 4 50 4 55 3 24 -3 -28 -6 -33 -9 -15
-10 14 -1 35 -4 47 -7 16 -5 21 -2 20 13 -2 16 7 18 63 20 36 1 120 7 188 13
68 6 223 11 345 10 260 -1 257 -1 256 8 -4 23 4 32 27 32 41 0 11 29 -38 37
-39 6 -99 45 -87 57 3 3 84 8 180 11 96 2 175 5 177 5 10 1 -34 63 -72 100
-25 25 -45 49 -46 55 0 5 -25 33 -57 63 -57 54 -156 112 -192 112 -11 0 -23 9
-26 21 l-7 21 -14 -21 c-8 -11 -20 -18 -28 -15 -25 10 -340 -43 -381 -64 -22
-11 -57 -24 -77 -27 -50 -9 -135 12 -153 37 -14 21 -14 21 -47 1 -19 -11 -54
-23 -78 -27 -25 -4 -83 -23 -128 -42 -46 -20 -89 -37 -95 -38 -7 -2 -25 -9
-42 -16 -48 -20 -121 -25 -127 -8 -4 10 13 23 57 42 45 19 65 34 69 50 9 35
63 82 144 124 40 21 81 45 92 54 15 13 34 16 92 12 40 -2 80 -7 89 -9 9 -3 22
1 29 10 16 19 10 21 -95 33 l-80 9 -23 -27 c-14 -18 -45 -36 -87 -50 -65 -22
-185 -92 -185 -109 0 -13 -53 -21 -65 -10 -7 7 -3 15 10 25 65 48 62 46 38 34
-26 -12 -33 -13 -33 -1 0 11 92 72 168 110 33 17 63 35 67 41 11 18 81 49 162
72 59 16 110 22 208 24 72 1 148 5 170 9 53 10 222 -11 322 -41 46 -14 118
-41 160 -61 66 -32 88 -37 148 -38 55 0 97 -9 199 -43 116 -39 142 -44 275
-52 80 -6 180 -14 221 -20 364 -46 1005 0 1840 132 133 21 246 32 355 35 145
5 166 3 220 -16 32 -12 70 -21 83 -21 21 0 23 3 17 32 -4 18 -12 38 -18 43 -7
6 -17 19 -23 30 -6 11 -22 23 -35 26 -13 4 -18 7 -10 8 8 1 11 4 7 8 -3 4 -27
6 -51 4 -25 -1 -45 2 -45 7 0 12 63 28 157 42 70 10 131 31 163 56 8 6 49 24
90 38 81 29 160 35 228 17 39 -11 41 -14 63 -79 12 -37 23 -78 25 -91 3 -31
44 -140 55 -147 17 -10 9 27 -25 114 -38 100 -73 229 -64 238 4 3 11 3 17 0
18 -11 101 -286 117 -386 3 -25 13 -62 20 -82 7 -21 21 -99 30 -174 29 -232
-2 -369 -111 -489 -29 -31 -42 -41 -34 -25 9 20 9 23 -1 13 -8 -8 -20 -9 -36
-3 -16 6 -24 6 -24 -1 0 -6 -9 -8 -20 -4 -12 4 -20 2 -20 -6 0 -8 -4 -8 -12
-1 -12 9 -74 24 -108 24 -8 1 -21 6 -29 12 -12 9 -13 8 -6 -3 6 -11 1 -12 -31
-6 -21 5 -80 9 -131 9 -50 0 -90 3 -87 7 2 4 -13 10 -34 14 l-37 7 40 14 c22
7 47 14 55 14 8 0 26 6 40 14 14 8 49 26 78 41 30 15 56 33 59 41 3 8 11 14
19 14 8 0 14 4 14 9 0 5 9 11 21 14 30 8 15 25 -18 21 -16 -2 -118 -7 -228 -9
-195 -6 -235 -10 -245 -25 -3 -4 -48 -11 -100 -14 -117 -8 -182 -16 -195 -26
-5 -4 -46 -11 -90 -14 -107 -9 -137 -13 -220 -25 -38 -6 -194 -11 -345 -11
-247 0 -283 2 -355 21 -44 12 -96 25 -115 29 -83 18 -136 34 -155 47 -11 7
-34 13 -52 13 -18 0 -33 5 -33 11 0 5 -4 8 -9 5 -4 -3 -21 -1 -37 3 -99 31
-219 62 -249 67 -11 1 -31 5 -45 9 -23 6 -30 0 -60 -45 -25 -36 -50 -59 -85
-77 -27 -14 -57 -34 -66 -46 l-17 -20 -27 27 -28 28 7 -37 c5 -26 4 -35 -4
-30 -6 4 -16 2 -23 -3 -7 -6 -64 -13 -128 -17 -97 -6 -121 -5 -147 9 -35 18
-72 21 -72 6 0 -5 -10 -10 -22 -10 -15 0 -19 3 -11 8 7 4 -17 9 -53 10 -35 2
-76 7 -90 12 -14 6 -48 10 -75 10 -38 0 -49 -4 -49 -16 0 -9 -3 -14 -7 -12 -5
2 -21 10 -36 18 -25 12 -30 12 -38 -1 -7 -12 -9 -11 -9 3 0 11 -5 15 -15 12
-8 -3 -22 2 -31 11 -16 16 -18 16 -27 -2 -25 -47 -57 -63 -129 -63 -37 0 -68
-4 -68 -8 0 -5 -88 -15 -195 -22 l-195 -13 -32 25 c-61 47 -358 57 -358 13 0
-37 -72 -51 -300 -56 -46 -1 -50 -3 -25 -9 20 -5 23 -8 10 -9 -31 -1 -65 10
-59 20 3 5 -2 9 -10 9 -31 0 -122 99 -130 143 -4 20 -30 71 -43 85 -7 7 -13
18 -13 24 0 5 -29 70 -65 144 -36 74 -65 137 -65 140 0 11 -55 120 -67 132 -7
7 -13 17 -13 22 0 11 -46 118 -60 140 -20 30 -30 62 -24 72 4 6 2 8 -3 5 -6
-4 -20 19 -34 56 -12 34 -25 64 -28 67 -8 7 -44 83 -46 95 -1 10 -27 67 -100
220 -72 152 -137 289 -145 310 -4 11 -34 76 -67 145 -47 96 -60 134 -58 162 3
33 1 37 -15 28 -15 -8 -17 -6 -14 13 2 12 1 16 -2 9 -6 -13 -47 66 -166 318
-28 58 -97 200 -154 315 -57 116 -104 214 -104 218 0 5 5 5 12 1 7 -4 8 -3 4
4 -4 6 -13 9 -21 5 -10 -3 -15 1 -15 12 0 9 -8 29 -18 43 -10 15 -23 38 -31
53 -28 57 -92 117 -155 148 l-64 31 -459 10 c-752 17 -820 19 -1016 32 -103 7
-192 12 -197 10 -7 -2 -10 -292 -10 -824 l0 -820 87 -162 c47 -88 97 -181 111
-206 43 -78 344 -632 380 -700 19 -36 59 -114 89 -174 86 -172 168 -244 318
-282 77 -19 180 -63 170 -72 -3 -3 -67 -9 -141 -13 -159 -9 -197 -24 -202 -77
-2 -18 -9 -32 -15 -32 -272 -7 -539 -19 -554 -25 -7 -2 -10 -11 -7 -20 6 -14
27 -15 168 -10 225 7 359 5 371 -6 6 -6 -6 -24 -35 -52 -53 -50 -96 -123 -77
-130 9 -4 9 -7 0 -14 -18 -13 -36 -67 -24 -71 6 -2 11 -18 11 -35 0 -24 3 -28
10 -17 8 12 10 11 10 -8 l0 -22 231 0 c214 1 229 2 217 18 -12 15 -10 15 14
-1 21 -13 47 -17 115 -16 48 1 77 3 63 5 -109 16 -180 41 -180 63 0 16 161 60
387 106 256 52 275 54 296 22 16 -22 16 -22 16 14 1 20 -6 52 -14 72 -19 47
-7 51 88 32 58 -11 286 -35 340 -35 7 0 23 -27 36 -60 24 -59 43 -74 67 -50
14 14 202 -1 520 -41 92 -12 113 -21 97 -41 -9 -11 0 -12 53 -10 60 3 64 5 64
27 0 18 6 24 28 27 24 3 27 7 27 38 1 28 6 38 29 48 25 13 44 37 35 47 -2 2
-29 -5 -59 -15 -30 -11 -83 -19 -117 -20 l-63 0 0 49 c0 27 5 72 12 99 13 60
8 58 203 67 159 7 260 22 275 40 6 8 35 16 63 19 29 3 102 11 162 17 110 11
155 27 155 54 0 17 52 20 113 6 52 -12 56 -19 27 -43 l-25 -21 35 8 c19 5 155
9 302 10 224 2 273 5 302 19 26 12 41 14 62 6 15 -6 65 -19 111 -29 80 -18
113 -33 113 -52 0 -14 -51 -36 -100 -44 -69 -11 -81 -21 -45 -36 40 -17 188
-24 212 -10 14 8 6 11 -42 12 -33 0 -71 4 -85 9 -26 8 -24 10 35 28 19 5 33
18 40 36 13 38 -13 59 -105 81 -69 17 -99 34 -63 36 10 0 43 2 73 4 33 1 66
-3 83 -12 15 -8 50 -17 78 -20 48 -6 50 -7 60 -48 9 -36 19 -48 74 -84 35 -23
95 -55 132 -72 141 -63 178 -82 166 -86 -7 -3 -48 9 -90 25 -43 16 -117 42
-165 57 l-88 29 -25 -24 c-14 -14 -40 -54 -56 -90 -17 -36 -38 -78 -46 -93
-14 -26 -14 -31 1 -45 14 -14 43 -17 184 -18 159 -1 222 7 222 28 0 5 -12 7
-27 4 -16 -3 -99 -8 -185 -12 l-158 -6 0 30 c0 32 32 111 62 155 15 21 27 27
55 27 47 0 155 -33 264 -80 49 -21 91 -34 94 -29 8 12 62 11 86 -2 16 -8 18
-13 9 -25 -10 -11 -8 -15 6 -20 11 -3 30 -12 44 -19 23 -12 36 -11 100 6 41
10 114 26 164 35 96 16 154 40 139 55 -6 6 -32 1 -69 -12 -84 -30 -157 -30
-217 0 -37 18 -56 22 -85 16 -68 -12 -109 -7 -158 19 -27 14 -121 61 -209 105
-88 44 -169 88 -179 100 -10 11 -19 34 -19 51 l-2 31 135 3 c74 2 306 7 516
11 l380 8 27 -52 c15 -28 30 -73 33 -99 4 -26 15 -62 26 -81 10 -18 17 -36 14
-38 -3 -3 -45 2 -93 11 -48 9 -160 20 -248 26 -88 6 -186 14 -218 19 -40 5
-56 4 -54 -3 5 -15 73 -24 257 -35 85 -5 227 -22 315 -37 183 -31 216 -34 222
-17 7 21 -60 82 -112 101 -54 21 -72 45 -82 109 l-6 36 749 -7 c412 -3 784 -9
827 -13 75 -5 80 -7 98 -37 11 -17 25 -50 31 -74 14 -48 5 -46 196 -42 85 2
102 -1 102 -13 0 -32 -214 -35 -295 -5 -22 9 -58 18 -79 21 -35 6 -38 5 -25
-8 8 -8 46 -28 84 -44 51 -22 71 -35 73 -50 3 -19 -2 -21 -55 -21 -32 1 -155
7 -273 14 -118 8 -219 12 -225 9 -7 -2 -24 1 -40 7 -15 6 -85 19 -155 29 -77
11 -143 27 -168 40 -23 12 -45 21 -49 21 -7 0 -30 -39 -135 -233 -10 -18 -18
-42 -18 -54 0 -26 14 -30 155 -43 55 -5 110 -12 122 -16 17 -5 25 0 36 23 9
15 32 44 51 63 30 28 43 34 77 33 35 -2 43 2 57 27 21 36 42 38 70 5 19 -22
31 -25 94 -27 114 -3 178 2 178 13 0 18 -30 24 -125 24 -55 1 -107 3 -116 6
-25 7 -51 37 -39 44 5 3 10 2 10 -3 0 -5 57 -10 128 -11 145 -2 192 -8 192
-25 0 -21 -55 -66 -81 -66 -13 0 -30 -4 -37 -9 -23 -14 22 -21 178 -27 80 -3
150 -7 156 -9 6 -2 14 -20 18 -39 5 -27 12 -36 26 -36 17 0 19 5 14 33 -10 51
-32 77 -82 98 -26 10 -55 24 -65 29 -24 14 -22 -2 3 -18 37 -23 23 -35 -35
-30 -30 3 -58 7 -61 11 -4 3 4 22 16 42 l22 36 97 -1 c181 -2 222 0 216 10 -3
6 -26 10 -50 10 -39 0 -46 4 -59 28 l-15 29 77 -4 c42 -3 97 -11 122 -18 31
-10 105 -15 238 -16 l192 -2 2 -51 c1 -28 1 -67 0 -86 l-1 -35 20 40 c27 53
37 146 17 166 -8 8 -22 26 -32 42 -33 49 4 31 75 -38 l67 -65 235 0 234 0 28
27 27 28 198 5 c257 7 274 18 158 109 -29 23 -62 48 -73 57 -11 8 -32 18 -47
21 -15 3 -33 12 -39 19 -14 17 -41 18 -56 3 -7 -7 -61 -14 -130 -17 l-118 -4
-62 36 c-35 20 -63 39 -63 42 0 3 12 3 28 0 58 -12 116 -17 217 -20 l105 -4 0
32 c0 42 -23 73 -67 91 -25 11 -33 19 -26 26 10 10 116 23 296 34 102 7 108 9
127 35 l20 28 -26 73 c-14 41 -31 80 -38 87 -10 10 -42 5 -167 -27 -234 -60
-273 -71 -288 -86 -21 -20 -3 -40 18 -21 36 33 183 60 205 39 9 -9 -150 -72
-181 -73 -28 0 -30 -16 -3 -30 25 -13 26 -37 3 -44 -10 -2 -92 -10 -183 -16
-191 -14 -219 -21 -227 -61 -5 -27 -9 -29 -53 -29 l-48 0 24 58 c54 135 52
296 -8 582 -32 152 -104 418 -119 435 -4 6 -11 30 -15 54 -6 39 -5 43 12 39
16 -3 19 -12 17 -51 -2 -26 -1 -47 2 -47 32 0 165 220 165 273 0 13 -25 66
-56 117 -31 52 -62 107 -70 124 -7 17 -13 25 -14 18 0 -7 -27 7 -60 33 -33 26
-100 65 -148 87 -86 40 -88 40 -174 35 -63 -4 -117 -16 -195 -42 -151 -51
-356 -154 -428 -215 -62 -52 -78 -57 -83 -24 -7 49 94 143 203 189 l60 26 -42
-5 c-55 -5 -137 -46 -192 -95 -25 -22 -48 -38 -52 -35 -4 2 -41 72 -84 156
-42 84 -84 163 -94 177 -10 15 -20 33 -23 41 -17 47 -217 279 -241 280 -11 0
-26 -44 -52 -160 -48 -210 -58 -250 -65 -250 -4 0 -10 20 -13 44 -4 24 -36
132 -71 239 -74 222 -96 304 -126 469 -18 102 -19 131 -11 235 5 65 8 119 6
121 -2 2 -13 -41 -25 -95 -25 -115 -28 -125 -29 -97 -4 97 78 373 158 532 89
178 164 285 290 415 53 55 62 67 44 67 -24 0 -107 -63 -161 -122 -89 -97 -222
-326 -291 -501 -16 -39 -43 -124 -60 -187 -46 -168 -54 -194 -60 -205 -3 -5
-6 -14 -8 -20 -1 -5 -11 -44 -21 -85 l-20 -75 -1 89 c-2 141 27 361 55 431 36
87 38 93 25 75 -6 -8 -11 -11 -11 -6 0 13 -48 -53 -56 -76 -7 -25 -19 -23 -32
6 -6 13 -40 57 -75 98 -76 87 -165 221 -208 312 l-31 65 -1 238 -2 238 33 98
c32 98 40 147 23 147 -5 0 -11 -8 -14 -17 -11 -37 -57 -138 -57 -127 -1 69
-25 231 -41 278 -24 69 -22 72 58 82 80 10 251 -24 332 -65 l36 -19 -115 4
-115 3 100 -13 c136 -17 210 -48 372 -153 76 -50 203 -127 283 -173 80 -45
177 -103 216 -129 39 -25 79 -51 90 -58 16 -10 4 -12 -67 -12 -80 -1 -149 -14
-149 -29 0 -4 55 -7 123 -7 162 0 175 -9 275 -186 l36 -64 -48 42 c-52 46
-111 72 -128 55 -6 -6 0 -16 19 -27 52 -30 166 -159 220 -246 110 -180 401
-756 468 -927 28 -71 28 -105 1 -66 -8 10 -53 73 -100 139 -47 66 -133 204
-192 306 -105 184 -179 296 -111 169 20 -36 81 -150 136 -254 74 -139 127
-223 203 -322 207 -270 229 -300 266 -371 20 -40 41 -73 45 -73 11 0 -1 57
-21 95 -11 23 -114 175 -176 259 -5 8 1 22 18 40 50 55 50 83 0 277 -8 30 -14
66 -14 80 0 47 -33 121 -59 131 -39 14 -61 5 -27 -12 49 -25 66 -59 81 -161 7
-52 19 -124 26 -160 13 -71 6 -143 -14 -136 -6 2 -30 50 -53 108 -51 129 -209
453 -300 614 -37 66 -83 156 -102 200 -19 44 -43 91 -54 104 -10 14 -15 27
-11 30 4 3 8 42 9 86 2 141 39 187 147 183 34 -2 79 1 100 5 37 8 37 8 37 -24
0 -17 5 -49 12 -71 10 -33 9 -47 -6 -89 -17 -46 -24 -154 -11 -167 3 -3 11 0
17 6 7 7 8 12 2 12 -15 0 0 119 22 163 16 33 16 41 4 60 -7 12 -17 44 -21 70
-11 70 -20 78 -70 60 -28 -9 -60 -12 -99 -7 -54 6 -59 5 -93 -26 -38 -33 -51
-66 -62 -152 -3 -26 -10 -50 -15 -53 -4 -3 -20 25 -35 63 -14 37 -33 77 -41
90 -8 12 -22 34 -31 48 -17 26 -17 26 5 20 26 -9 27 -4 8 32 -21 41 -75 87
-136 118 -30 15 -91 51 -135 79 -44 29 -156 95 -250 147 -93 53 -210 121 -258
151 -49 31 -103 61 -122 67 -18 6 -40 22 -49 35 -23 35 -162 100 -268 125 -77
18 -106 20 -168 14 -41 -5 -78 -8 -81 -9 -4 0 -46 50 -94 110 -102 128 -353
378 -407 406 -33 17 -37 24 -43 66 -8 65 -33 119 -61 138 -34 22 -30 34 22 57
41 18 48 18 55 5 14 -25 78 -98 102 -117 54 -42 141 -45 210 -8 34 18 116 98
154 152 21 28 75 95 122 150 198 228 205 237 240 331 34 90 31 181 -9 262 -36
73 -160 195 -301 297 -146 105 -216 108 -346 19 -35 -24 -68 -43 -73 -43 -17
0 -11 39 9 59 18 18 18 20 3 26 -12 5 -13 9 -4 12 6 3 12 13 12 23 0 24 21 70
32 70 4 0 8 11 8 25 0 35 17 31 34 -7 l14 -33 1 32 c1 17 -4 65 -9 105 -8 55
-7 83 2 115 13 42 94 140 106 128 9 -9 9 -147 0 -215 l-8 -55 21 44 c15 31 21
65 22 120 1 72 -1 82 -46 173 -26 53 -47 101 -47 106 0 5 9 31 21 56 16 37 24
46 37 41 59 -25 172 -32 172 -12 0 19 -44 84 -105 154 -67 76 -114 171 -100
201 12 27 22 28 29 4 6 -17 46 -48 46 -35 0 19 -82 128 -148 199 -40 42 -72
84 -72 93 0 9 6 36 14 60 14 49 -4 38 251 148 125 53 31 31 -113 -28 -69 -27
-127 -47 -130 -45 -3 3 1 14 9 23 13 16 12 17 -3 4 -15 -11 -19 -11 -24 3 -3
9 -4 28 -1 43 3 14 0 39 -5 55 -8 24 -7 33 8 50 19 21 19 21 -3 10 -18 -10
-29 -7 -65 13 -73 43 -164 66 -253 65 -85 -1 -134 10 -255 58 -41 17 -101 38
-133 48 -87 26 -182 84 -183 112 -1 12 -7 28 -13 36 -10 12 -9 19 6 34 54 56
158 113 278 153 101 33 186 30 358 -14 180 -46 204 -64 259 -192 12 -27 17
-33 17 -19 1 11 -12 47 -29 80 -35 70 -79 104 -165 129 -33 10 -96 29 -140 44
-113 37 -250 36 -348 -2 -68 -26 -207 -95 -217 -107 -20 -25 -90 -32 -90 -9 0
5 -16 9 -35 9 -27 0 -35 -4 -35 -17 -1 -16 -2 -16 -15 1 -8 11 -18 17 -21 13
-4 -4 -1 -14 6 -22 11 -13 10 -19 -4 -33 -16 -16 -18 -16 -32 3 -9 12 -13 31
-10 48 5 22 2 27 -15 27 -13 0 -19 -6 -17 -17 2 -13 -5 -19 -24 -21 -16 -2
-28 -8 -28 -13 0 -5 -4 -9 -9 -9 -12 0 -31 56 -23 65 4 3 0 4 -8 0 -17 -6 -77
96 -72 123 2 14 1 15 -7 3 -8 -13 -12 -13 -28 -1 -62 49 -101 90 -126 134 -15
28 -33 53 -39 57 -31 19 -118 -54 -198 -166 -45 -65 -45 -46 0 45 33 66 78
113 134 139 23 11 124 37 225 57 101 21 179 40 173 42 -17 5 -239 -27 -332
-49 -89 -21 -149 -50 -189 -93 -13 -14 -28 -23 -33 -20 -5 3 -8 2 -7 -3 1 -4
-18 -50 -42 -101 l-44 -92 -45 4 c-25 3 -36 3 -25 0 11 -3 25 -11 30 -16 7 -7
2 -9 -15 -4 -129 35 -296 45 -352 21 -16 -6 -18 0 -18 66 -1 126 -36 248 -87
302 -42 43 -45 32 -8 -24z m839 -186 c21 -43 46 -167 46 -223 0 -38 -17 -90
-29 -90 -8 0 -47 26 -101 68 -36 27 -52 32 -97 32 -29 0 -53 4 -53 9 0 30 183
240 211 241 3 0 13 -17 23 -37z m110 -135 c-8 -13 -20 1 -28 32 l-7 25 20 -24
c12 -12 18 -28 15 -33z m62 -63 c18 -43 18 -47 -2 -43 -11 2 -17 16 -20 41 -4
46 3 47 22 2z m-612 1 c111 -22 133 -37 100 -71 -12 -12 -19 -13 -30 -4 -11 9
-15 8 -20 -5 -10 -27 -70 -17 -216 33 -38 13 -70 18 -98 14 -37 -5 -42 -4 -38
13 2 10 14 21 28 25 45 12 196 9 274 -5z m-358 -58 c-8 -13 -18 -43 -22 -67
-8 -50 -31 -77 -71 -87 -16 -4 -46 -17 -69 -30 -22 -13 -46 -24 -53 -24 -12 0
-70 59 -71 72 0 12 75 57 180 110 109 55 128 59 106 26z m147 -9 c41 -11 53
-39 13 -32 -26 5 -86 -21 -86 -38 0 -6 -4 -7 -10 -4 -5 3 -10 24 -10 46 0 36
2 39 28 39 15 0 44 -5 65 -11z m-136 -21 c-3 -8 -6 -5 -6 6 -1 11 2 17 5 13 3
-3 4 -12 1 -19z m687 1 c8 -12 12 -28 9 -36 -4 -11 -8 -12 -13 -2 -6 8 -11 6
-19 -9 -11 -21 -12 -21 -31 -2 -11 11 -27 20 -35 20 -22 0 -18 17 7 34 31 22
64 20 82 -5z m330 -11 c7 -18 16 -45 20 -60 6 -26 4 -28 -23 -28 -25 0 -29 4
-34 36 -5 30 8 84 20 84 2 0 10 -15 17 -32z m-74 -24 c0 -37 -14 -42 -34 -12
-7 12 -6 21 3 32 21 25 31 19 31 -20z m207 0 c6 -16 -15 -37 -29 -28 -4 3 -8
14 -8 25 0 23 28 26 37 3z m-1147 -25 c0 -10 -7 -19 -15 -19 -16 0 -19 9 -9
34 8 20 24 11 24 -15z m619 -34 c0 -26 -2 -27 -9 -10 -5 11 -9 31 -9 45 -1 20
1 22 9 10 5 -8 9 -28 9 -45z m-914 -72 c28 -32 31 -46 11 -62 -21 -17 -66 -2
-78 25 -9 19 -8 28 7 44 24 26 31 25 60 -7z m1762 -79 c-3 -3 -12 -4 -19 -1
-8 3 -5 6 6 6 11 1 17 -2 13 -5z m-2597 -103 c12 -37 11 -43 -13 -83 -52 -85
-43 -81 -140 -46 -48 17 -87 35 -87 39 0 13 86 81 132 105 24 12 55 22 69 23
22 1 28 -5 39 -38z m68 30 c10 -6 10 -10 -2 -20 -12 -10 -20 -9 -40 4 -14 10
-26 19 -26 21 0 7 55 4 68 -5z m306 -21 c14 -5 30 -19 36 -32 11 -22 10 -22
-4 -4 -16 20 -16 20 -17 0 0 -10 -3 -13 -6 -6 -2 6 -10 12 -16 12 -7 0 -23 9
-37 20 -25 19 -25 20 -3 20 12 0 33 -4 47 -10z m134 -5 c29 -13 34 -18 22 -25
-24 -15 -49 -11 -60 9 -19 36 -15 38 38 16z m-257 -24 c8 -6 34 -25 58 -43 53
-40 60 -55 29 -67 -74 -28 -80 -26 -128 47 -25 37 -49 71 -55 75 -5 5 11 7 36
4 26 -2 53 -9 60 -16z m-91 -8 c0 -5 -9 -21 -20 -38 -22 -33 -27 -21 -8 20 10
23 28 34 28 18z m-73 -25 c-3 -13 -11 -49 -17 -81 -6 -32 -14 -57 -16 -54 -4
3 3 46 22 135 2 12 7 22 10 22 4 0 4 -10 1 -22z m3101 16 c12 -4 22 -13 22
-21 0 -12 -8 -14 -37 -8 -48 9 -59 15 -42 26 17 10 26 11 57 3z m117 -31 c39
-19 47 -53 21 -89 -15 -19 -15 -19 -30 1 -8 11 -16 28 -16 38 0 9 -6 17 -12
17 -9 0 -8 4 2 10 10 6 11 10 3 10 -7 0 -13 7 -13 15 0 19 2 19 45 -2z m-3269
-70 c-4 -37 -9 -69 -11 -71 -6 -6 -54 32 -55 42 0 14 54 96 64 96 5 0 6 -30 2
-67z m158 6 c20 -23 34 -44 32 -46 -7 -8 -73 27 -92 48 -16 17 -16 22 -4 29
22 14 25 13 64 -31z m3006 1 c0 -13 -7 -20 -19 -20 -25 0 -38 20 -20 31 23 15
39 10 39 -11z m-3404 -17 c40 -13 74 -30 103 -49 4 -3 -28 -46 -67 -92 -22
-25 -22 -23 4 23 l27 50 -25 -25 c-14 -14 -33 -40 -42 -58 -9 -18 -21 -30 -26
-27 -6 4 -10 2 -10 -4 0 -5 5 -11 12 -13 8 -3 7 -11 -4 -27 l-16 -22 -5 23
c-14 55 -19 131 -12 182 3 31 8 56 9 56 1 0 25 -7 52 -17z m3470 -50 c-3 -3
-13 0 -23 6 -10 6 -12 11 -5 11 8 0 11 9 7 28 -5 23 -4 23 10 -7 8 -19 13 -36
11 -38z m-3124 19 c32 -23 -6 -45 -40 -24 -10 7 -10 15 -1 38 8 20 13 25 17
14 3 -8 14 -21 24 -28z m91 -19 c-7 -2 -19 -2 -25 0 -7 3 -2 5 12 5 14 0 19
-2 13 -5z m3098 -86 c-13 -13 -15 21 -3 50 6 15 8 13 10 -11 2 -16 -1 -33 -7
-39z m-3378 12 c-8 -29 -13 -23 -13 14 0 22 3 28 9 18 5 -7 6 -22 4 -32z m-34
-11 c0 -13 -4 -32 -9 -43 -8 -19 -9 -19 -9 3 -1 12 -5 22 -10 22 -4 0 -4 -21
1 -47 6 -32 6 -57 -1 -76 l-11 -28 -29 23 c-38 30 -38 46 2 98 17 24 36 49 42
56 15 21 25 17 24 -8z m2581 -45 c0 -3 -9 -3 -20 0 -11 3 -20 1 -20 -4 0 -5
-8 -9 -17 -9 -15 0 -15 2 2 14 17 12 55 11 55 -1z m1029 -233 c18 -23 30 -47
27 -55 -7 -19 -59 -32 -64 -17 -2 7 -12 12 -23 12 -19 0 -37 25 -26 36 3 3 16
0 29 -6 20 -11 18 -8 -8 21 -31 33 -50 80 -38 92 9 9 66 -37 103 -83z m-2235
12 c3 -5 -1 -9 -9 -9 -8 0 -15 4 -15 9 0 4 4 8 9 8 6 0 12 -4 15 -8z m1131
-12 c-3 -5 -12 -10 -18 -10 -7 0 -6 4 3 10 19 12 23 12 15 0z m-55 -40 c-14
-11 -29 -20 -35 -20 -5 0 4 9 20 20 38 25 48 25 15 0z m-2825 -50 c15 -6 25
-15 23 -22 -4 -10 -108 -52 -113 -45 -6 6 -35 67 -35 72 0 9 97 5 125 -5z
m3915 -35 c7 -9 10 -18 7 -21 -10 -11 -37 5 -37 21 0 19 14 19 30 0z m-2583
-27 c-3 -8 -6 -5 -6 6 -1 11 2 17 5 13 3 -3 4 -12 1 -19z m2583 -53 c0 -8 -7
-15 -15 -15 -8 0 -15 7 -15 15 0 8 7 15 15 15 8 0 15 -7 15 -15z m-4065 -112
c-7 -67 -8 -69 -67 -122 -33 -30 -73 -78 -90 -108 -24 -43 -33 -51 -44 -42
-11 9 -14 9 -14 0 0 -7 -5 -9 -12 -5 -10 6 -9 3 0 -9 8 -9 16 -46 19 -83 l5
-67 -38 6 -39 6 44 -22 c25 -12 47 -28 49 -36 3 -7 -31 5 -78 30 -86 45 -128
88 -150 154 -18 55 12 110 106 188 69 58 276 177 307 177 6 0 6 -27 2 -67z
m4069 39 c2 -4 1 -14 -4 -22 -7 -11 -12 -12 -21 -3 -6 6 -8 16 -5 22 8 13 23
14 30 3z m220 -83 c31 -36 56 -69 56 -73 0 -9 -53 2 -102 21 -35 14 -38 19
-38 53 0 43 9 72 20 68 4 -2 33 -33 64 -69z m-1287 29 c4 -7 10 -31 13 -52 6
-47 18 -53 48 -25 13 11 32 19 45 17 24 -3 27 -29 15 -118 -5 -36 -4 -40 4
-20 6 14 16 38 22 55 l13 29 16 -49 c9 -28 17 -59 17 -70 1 -11 3 -66 6 -122
5 -90 4 -103 -10 -103 -10 0 -20 -15 -27 -45 -6 -25 -15 -45 -20 -45 -5 0 -6
-8 -3 -17 3 -10 -2 -6 -11 10 -8 15 -18 27 -20 27 -3 0 -2 -21 2 -47 5 -38 4
-45 -8 -41 -12 5 -13 -3 -5 -48 6 -29 13 -51 17 -48 4 2 11 -1 14 -7 4 -5 13
-8 21 -5 9 3 14 -2 14 -14 0 -14 7 -20 24 -20 14 0 31 -6 38 -13 7 -7 58 -21
113 -31 55 -9 111 -23 125 -29 31 -15 79 -101 80 -142 0 -17 5 -46 10 -65 6
-19 13 -98 15 -175 5 -129 9 -149 45 -257 39 -116 82 -198 104 -198 6 0 24 19
39 43 27 41 28 45 25 168 -3 132 2 151 43 164 10 4 22 17 25 31 3 13 11 24 18
25 6 0 3 3 -6 7 -15 7 -15 11 3 61 34 98 106 181 223 259 132 87 203 71 392
-91 176 -151 215 -204 229 -313 15 -107 -36 -206 -200 -389 -54 -61 -128 -150
-165 -200 -103 -139 -165 -185 -250 -185 -32 0 -48 7 -81 37 -23 21 -50 57
-60 80 -22 52 -44 59 -109 34 l-51 -20 -9 22 c-36 88 -51 119 -55 115 -3 -2 7
-60 21 -129 32 -154 30 -279 -6 -409 -23 -83 -24 -84 -33 -52 -14 44 -26 40
-20 -7 6 -45 -27 -157 -57 -191 -17 -20 -19 -20 -24 -3 -3 10 -4 6 -2 -10 3
-23 0 -27 -15 -22 -11 4 -19 2 -19 -4 0 -6 -5 -11 -11 -11 -6 0 -33 -18 -59
-40 -26 -22 -52 -40 -57 -40 -5 0 -20 -11 -33 -25 -31 -32 -75 -34 -84 -3 -7
30 -19 16 -42 -52 -17 -50 -34 -78 -82 -135 -27 -33 -131 -115 -146 -115 -7 0
-21 -9 -33 -19 l-20 -19 -2 56 c-1 77 -21 94 -21 19 0 -39 -4 -57 -12 -57 -7
0 -26 -7 -42 -15 -15 -8 -32 -12 -37 -9 -5 3 -9 0 -9 -5 0 -6 -7 -11 -15 -11
-8 0 -15 -5 -15 -12 0 -6 -2 -9 -5 -7 -2 3 2 23 10 44 19 55 19 109 -1 126
-15 12 -16 10 -10 -19 10 -41 -1 -92 -20 -92 -7 0 -21 -11 -30 -25 -20 -31
-33 -20 -64 53 -12 28 -28 57 -36 63 -18 15 -18 9 6 -46 21 -50 29 -133 9
-105 -9 12 -12 12 -16 2 -3 -9 -26 9 -67 53 -34 38 -68 66 -75 64 -9 -3 -6
-13 9 -32 12 -16 20 -30 18 -33 -3 -2 -17 13 -32 33 l-28 38 6 -30 6 -30 -17
30 c-10 17 -24 31 -30 33 -17 3 -16 -3 2 -39 22 -42 8 -57 -22 -23 -24 29 -24
29 -18 4 13 -54 16 -74 10 -68 -4 4 -30 -2 -57 -13 l-50 -19 -5 21 c-4 16 -8
17 -14 7 -6 -9 -8 -3 -8 17 0 17 -2 51 -5 77 -4 43 -2 48 17 53 38 8 179 44
252 64 39 10 105 24 148 31 71 12 77 15 77 36 0 18 -9 28 -37 40 -31 12 -63
14 -173 10 -74 -3 -171 -10 -215 -16 -44 -6 -118 -12 -165 -15 -103 -5 -144
-10 -156 -17 -5 -3 -29 -6 -53 -6 l-43 -1 33 19 c120 68 218 104 404 149 168
41 167 41 95 35 -63 -5 -250 -41 -359 -70 -40 -10 -58 -11 -74 -2 l-21 11 23
18 c32 26 119 56 266 92 127 31 135 32 370 32 214 0 244 -2 278 -19 43 -21 67
-11 67 29 0 42 -122 175 -160 175 -7 0 17 -31 53 -69 72 -75 85 -95 37 -61
-16 12 -30 17 -30 11 0 -7 -40 -11 -114 -11 -153 0 -346 -16 -481 -41 -60 -11
-123 -22 -140 -25 -17 -3 8 14 60 40 126 63 205 138 205 194 0 22 -18 26 -32
8 -4 -6 -44 -11 -90 -13 -46 -2 -94 -6 -108 -10 -14 -3 -34 -8 -45 -10 -11 -2
-22 -8 -23 -13 -2 -6 -7 -8 -12 -5 -5 3 -14 0 -22 -7 -21 -20 -66 -22 -242
-12 -90 5 -102 3 -127 -15 -16 -12 -35 -21 -44 -21 -9 0 -18 -7 -21 -15 -9
-21 -34 -19 -34 4 0 10 29 44 65 77 56 50 68 68 89 129 30 82 43 133 50 195
17 136 29 207 35 220 12 23 70 33 114 20 51 -15 84 -36 153 -96 129 -112 182
-132 356 -141 l117 -6 10 27 c7 16 27 34 56 48 52 26 44 38 -27 38 -58 0 -86
9 -66 21 7 5 27 9 43 9 50 0 145 28 215 63 66 33 180 136 180 163 0 8 -12 1
-30 -18 -16 -17 -30 -28 -30 -24 0 3 -21 -4 -47 -17 -45 -23 -203 -77 -220
-77 -4 1 15 11 42 23 90 41 129 65 168 104 83 82 112 170 86 260 -7 27 -12 51
-11 56 1 4 -3 7 -9 7 -5 0 -8 4 -5 9 9 14 -61 42 -138 55 -65 11 -68 13 -37
19 109 22 193 -3 257 -79 48 -55 72 -65 94 -39 7 8 28 15 46 15 27 0 36 6 49
30 14 27 14 33 1 59 -17 33 -61 54 -120 57 -61 2 -136 15 -141 24 -5 9 64 21
144 25 39 2 58 8 68 21 20 28 12 37 -60 64 -50 19 -70 32 -82 55 l-15 30 5
-39 c6 -35 4 -38 -12 -31 -10 4 -43 10 -74 15 -32 4 -66 13 -76 18 -11 6 -31
9 -46 8 -15 -2 -27 1 -27 7 0 6 -5 6 -12 0 -7 -5 -32 -15 -55 -23 -24 -7 -43
-17 -43 -22 0 -4 -6 -8 -14 -8 -7 0 -29 -17 -48 -37 -19 -21 -52 -51 -73 -67
-22 -17 -42 -33 -45 -37 -3 -3 -16 -10 -29 -14 -13 -4 -45 -22 -70 -40 -48
-34 -162 -85 -191 -85 -9 0 -20 -3 -24 -7 -18 -19 -106 -23 -137 -7 -40 20
-69 18 -69 -5 0 -16 -7 -18 -56 -16 -34 1 -59 7 -64 15 -7 11 -11 11 -23 1
-13 -10 -15 -9 -10 8 3 12 1 21 -4 21 -4 0 -24 34 -42 75 -19 41 -38 75 -43
75 -4 0 -8 -60 -9 -132 0 -73 -3 -128 -5 -121 -3 7 -12 9 -20 6 -8 -3 -14 0
-14 6 0 6 -7 11 -15 11 -8 0 -15 8 -15 18 0 13 -6 10 -26 -13 -14 -16 -29 -36
-34 -44 -14 -25 -60 -5 -67 30 -4 23 -8 27 -15 17 -7 -9 -8 -8 -4 6 4 10 1 25
-5 33 -7 7 -9 16 -5 20 3 3 6 1 6 -5 0 -7 5 -12 10 -12 6 0 10 7 10 15 0 8 19
54 42 102 39 79 43 95 43 163 0 108 -8 174 -22 180 -10 4 -9 12 2 34 9 16 12
32 7 35 -5 3 -9 13 -9 22 0 20 68 20 75 0 2 -7 18 -28 34 -47 17 -19 26 -34
22 -34 -5 0 -4 -4 1 -8 6 -4 27 -40 48 -81 21 -40 47 -83 58 -95 21 -22 99
-176 99 -195 0 -6 4 -11 9 -11 4 0 11 49 13 110 5 87 10 116 27 145 11 20 21
42 21 49 0 8 12 16 28 19 67 14 126 35 136 49 7 9 31 26 53 38 38 20 41 24 32
46 -5 14 -9 39 -9 55 0 25 -4 29 -27 30 -16 1 -31 1 -34 1 -4 -1 -9 8 -12 18
-3 11 -1 20 4 20 5 0 9 8 9 19 0 16 -7 18 -45 15 -42 -3 -45 -2 -45 21 0 19
-10 29 -41 44 -33 16 -41 17 -45 6 -5 -11 -11 -9 -29 8 -12 12 -20 25 -18 30
4 6 -20 11 -40 8 -23 -4 -87 21 -87 34 0 17 -26 20 -35 5 -10 -15 -25 -12 -25
6 0 8 -6 22 -14 29 -12 12 -15 12 -20 -1 -3 -8 -2 -12 4 -9 13 8 13 -25 0 -45
-8 -12 -10 -11 -10 7 0 12 -4 24 -9 28 -6 3 -1 20 10 39 11 19 21 42 23 52 7
35 47 119 64 134 9 8 28 20 42 26 14 7 54 35 90 64 35 28 93 68 129 87 155 87
455 124 631 78 84 -22 171 -25 194 -6 13 11 17 26 14 58 -3 43 4 54 19 31z
m1150 -40 c-3 -7 -5 -2 -5 12 0 14 2 19 5 13 2 -7 2 -19 0 -25z m7 -274 c5
-18 0 -36 -13 -57 l-21 -32 0 26 c0 39 11 89 20 89 4 0 11 -12 14 -26z m-2374
-163 c-18 -39 -37 -71 -42 -71 -5 0 -7 -4 -4 -8 3 -5 -4 -27 -15 -49 -11 -23
-21 -50 -22 -62 -1 -23 -22 -29 -30 -8 -3 6 -4 -4 -1 -23 2 -19 2 -29 -2 -23
-4 10 -13 9 -40 -2 -20 -8 -36 -10 -39 -4 -4 5 -11 6 -17 3 -6 -4 -8 -3 -5 3
4 5 -7 10 -23 10 -17 0 -30 -4 -30 -9 0 -4 -4 -8 -10 -8 -5 0 -10 4 -10 10 0
13 70 76 82 72 5 -1 7 2 4 7 -7 10 222 246 230 238 4 -3 -9 -38 -26 -76z
m-257 -135 c-48 -47 -93 -86 -99 -86 -7 0 -14 -7 -18 -15 -3 -8 -12 -15 -19
-15 -8 0 -20 -6 -26 -14 -6 -7 -22 -11 -36 -8 -24 4 -24 5 -8 17 12 9 20 10
24 3 4 -6 12 -7 19 -3 9 5 9 9 1 14 -7 5 18 27 61 57 85 58 100 69 147 111 70
62 41 23 -46 -61z m250 12 c-5 -24 -3 -29 7 -23 9 5 11 4 6 -3 -9 -14 -36 -16
-36 -3 0 14 19 61 25 61 2 0 2 -14 -2 -32z m80 -9 c7 0 3 -4 -8 -9 -29 -13
-35 -12 -35 6 0 11 5 14 16 10 9 -3 21 -6 27 -7z m-43 -39 c0 -5 -5 -10 -11
-10 -5 0 -7 5 -4 10 3 6 8 10 11 10 2 0 4 -4 4 -10z m-52 -9 c10 -6 7 -10 -11
-13 -18 -4 -24 -1 -20 9 6 15 13 16 31 4z m-280 -73 c-2 -6 -10 -14 -16 -16
-7 -2 -10 2 -6 12 7 18 28 22 22 4z m1512 -518 c0 -5 -5 -10 -11 -10 -5 0 -7
5 -4 10 3 6 8 10 11 10 2 0 4 -4 4 -10z m-1502 -11 c6 -1 12 -6 12 -11 0 -5 9
-4 19 2 26 14 31 13 25 -5 -4 -8 -10 -12 -15 -9 -16 10 -9 -9 11 -31 18 -20
20 -27 10 -66 -6 -24 -12 -51 -14 -59 -4 -18 -7 -18 -73 -1 -40 10 -53 18 -53
31 0 10 -12 28 -26 39 -31 25 -65 87 -57 107 4 12 20 14 77 10 39 -3 77 -6 84
-7z m-733 -71 c10 -18 47 -60 82 -94 51 -51 63 -69 63 -95 0 -33 -22 -59 -73
-85 -25 -14 -27 -18 -21 -52 9 -51 12 -54 45 -48 16 2 29 0 29 -5 0 -5 6 -9
14 -9 7 0 19 -6 25 -14 9 -10 8 -15 -4 -19 -22 -9 -13 -107 13 -149 12 -18 32
-74 47 -123 14 -50 27 -96 30 -103 2 -7 5 -16 7 -20 1 -4 7 -12 12 -18 19 -20
25 5 22 98 -2 97 7 121 23 61 12 -44 17 -206 7 -222 -4 -6 -1 -11 6 -11 9 0 9
-3 -2 -10 -8 -5 -10 -10 -4 -10 6 0 11 -16 12 -36 1 -20 5 -41 10 -48 9 -11
56 -148 82 -236 8 -25 15 -49 17 -55 1 -5 10 -38 19 -72 9 -35 21 -63 26 -63
5 0 6 -10 3 -21 -4 -12 -3 -24 1 -28 5 -3 24 -44 43 -91 19 -47 41 -91 48 -99
9 -9 12 -24 8 -43 -4 -17 -2 -35 5 -43 7 -8 9 -15 4 -15 -5 0 -2 -4 6 -10 8
-5 12 -12 8 -15 -10 -10 -83 41 -117 82 -52 62 -88 150 -116 278 -14 66 -32
143 -40 170 -37 131 -74 244 -87 271 -9 16 -28 81 -43 144 -55 233 -76 295
-150 445 -81 161 -105 248 -105 369 0 85 13 98 45 44z m2204 -82 c89 -46 79
-191 -19 -280 -77 -70 -224 -126 -327 -126 -124 0 -273 88 -273 161 0 31 16
47 57 55 26 5 32 2 51 -29 26 -45 73 -69 133 -69 94 0 163 73 139 146 -13 39
-28 48 -69 40 -26 -6 -28 -4 -23 26 2 17 12 34 21 37 9 2 43 15 76 28 33 13
69 26 80 29 35 9 122 -2 154 -18z m-1193 -123 c-10 -10 -19 5 -10 18 6 11 8
11 12 0 2 -7 1 -15 -2 -18z m-788 -208 c0 -25 -21 -34 -33 -15 -10 16 2 40 18
40 9 0 15 -10 15 -25z m374 -85 c-30 -28 -29 -74 3 -106 38 -38 87 -54 164
-54 59 0 74 4 99 25 45 38 57 74 38 120 -21 50 -20 55 12 55 61 0 94 -57 72
-125 -15 -44 -88 -109 -148 -130 -26 -9 -92 -19 -147 -22 -167 -9 -258 31
-287 129 -10 33 -9 45 3 66 24 42 61 62 129 71 75 9 93 0 62 -29z m2468 -860
c26 -156 23 -195 -20 -324 -32 -94 -136 -296 -125 -241 l6 30 -21 -30 c-12
-16 -20 -23 -19 -15 4 27 -12 49 -42 55 -16 4 -29 13 -29 21 0 8 -4 14 -9 14
-5 0 -12 15 -15 34 -4 23 -13 36 -28 39 -18 5 -20 11 -16 61 4 48 2 57 -14 62
-19 6 -25 24 -8 24 5 0 7 7 4 15 -3 8 31 67 81 141 48 70 105 163 126 208 38
82 88 251 91 310 1 17 5 -36 9 -119 3 -82 17 -211 29 -285z m161 365 c24 -31
83 -90 132 -132 48 -42 90 -86 93 -97 3 -12 23 -34 45 -51 70 -54 178 -246
201 -360 19 -92 13 -383 -11 -550 -11 -77 -25 -189 -31 -250 -6 -60 -19 -159
-30 -220 -11 -60 -26 -164 -35 -230 -25 -206 -49 -345 -57 -345 -4 0 -25 27
-45 61 -52 83 -121 175 -187 246 -56 60 -98 86 -237 143 -122 49 -118 34 -49
193 126 293 203 558 256 890 9 59 20 107 23 107 3 0 18 -11 32 -24 69 -64 234
-158 299 -170 27 -5 22 -1 -26 21 -71 33 -167 90 -244 146 l-56 41 4 177 c5
218 -5 254 -122 432 -32 48 0 29 45 -28z m-2338 -152 c-10 -28 -64 -107 -79
-116 -8 -4 -14 -15 -14 -22 0 -8 -7 -15 -15 -15 -8 0 -16 -10 -16 -22 l-2 -23
-4 23 c-2 12 -9 22 -15 22 -7 0 -6 5 1 14 9 11 9 20 2 35 -14 26 -14 28 7 35
9 3 29 14 43 23 39 28 94 63 96 63 1 0 0 -8 -4 -17z m-160 -118 c-3 -9 -8 -14
-10 -11 -3 3 -2 9 2 15 9 16 15 13 8 -4z m17 -67 c0 -18 -2 -20 -9 -8 -6 8 -7
18 -5 22 9 14 14 9 14 -14z m2380 -201 c0 -58 -61 -252 -75 -240 -4 5 -5 2 -1
-5 7 -12 -24 -72 -51 -100 -19 -19 -17 -12 18 65 36 80 63 164 80 250 11 59
29 78 29 30z m-420 -133 c0 -8 -5 -12 -10 -9 -6 4 -8 11 -5 16 9 14 15 11 15
-7z m-1170 -45 c0 -11 -3 -18 -7 -16 -5 3 -8 -15 -8 -39 0 -24 3 -44 7 -44 5
0 8 -12 8 -27 l-1 -28 -15 28 c-8 15 -14 33 -13 40 3 25 -1 38 -11 32 -5 -3
-10 -1 -10 4 0 6 5 11 11 11 6 0 9 7 5 15 -3 8 2 21 10 30 20 20 24 19 24 -6z
m1175 1 c-3 -5 -12 -10 -18 -10 -7 0 -6 4 3 10 19 12 23 12 15 0z m-1243 -77
c-4 -35 -6 -36 -15 -16 -7 16 -6 27 3 38 17 20 17 20 12 -22z m-587 19 c6 -4
19 -23 29 -42 29 -53 90 -145 98 -148 5 -2 8 -9 8 -15 0 -7 17 -23 38 -37 36
-24 36 -25 13 -28 -36 -6 -176 69 -177 94 -1 10 -7 33 -14 49 -16 37 -26 135
-14 135 5 0 14 -4 19 -8z m-134 -72 c27 -27 46 -50 42 -51 -5 0 3 -5 16 -10
13 -5 21 -12 18 -15 -7 -8 -70 22 -142 69 -51 33 -50 39 3 20 6 -3 12 0 12 6
0 6 -4 11 -10 11 -5 0 -10 5 -10 10 0 21 23 8 71 -40z m1069 31 c0 -6 -4 -13
-10 -16 -5 -3 -10 1 -10 9 0 9 5 16 10 16 6 0 10 -4 10 -9z m24 -6 c-4 -8 -8
-15 -10 -15 -2 0 -4 7 -4 15 0 8 4 15 10 15 5 0 7 -7 4 -15z m-217 -51 c-3 -3
-12 -4 -19 -1 -8 3 -5 6 6 6 11 1 17 -2 13 -5z m1344 -76 c-11 -18 -21 -27
-21 -20 0 14 33 62 39 56 2 -2 -6 -18 -18 -36z m-58 -35 c-3 -7 -6 -13 -8 -13
-2 0 -5 6 -8 13 -3 8 1 14 8 14 7 0 11 -6 8 -14z m-1696 -89 c-3 -3 -12 -4
-19 -1 -8 3 -5 6 6 6 11 1 17 -2 13 -5z m453 -279 c0 -8 -4 -15 -10 -15 -5 0
-7 7 -4 15 4 8 8 15 10 15 2 0 4 -7 4 -15z m-36 -137 c-11 -31 -11 -33 -14
-70 l-2 -33 -14 32 c-12 29 -12 35 7 68 23 39 36 41 23 3z m531 -29 c26 -11
45 -23 42 -25 -8 -8 -136 58 -141 73 -4 9 4 7 24 -7 16 -11 50 -30 75 -41z
m-614 -144 c-12 -59 -21 -119 -22 -134 -1 -23 -2 -21 -9 9 -11 44 4 157 27
204 9 20 18 34 21 32 2 -3 -6 -52 -17 -111z m637 44 c-3 -8 -7 -3 -11 10 -4
17 -3 21 5 13 5 -5 8 -16 6 -23z m-572 -156 c-6 -154 -18 -224 -42 -244 -10
-8 -12 -3 -8 28 3 21 10 50 16 65 5 15 12 44 14 65 2 21 6 56 9 78 l6 40 -26
-55 c-16 -34 -24 -44 -19 -25 7 35 34 184 36 202 1 7 5 10 10 7 5 -3 7 -75 4
-161z m101 135 c-3 -8 -6 -5 -6 6 -1 11 2 17 5 13 3 -3 4 -12 1 -19z m-30 -85
c-2 -16 -4 -5 -4 22 0 28 2 40 4 28 2 -13 2 -35 0 -50z m79 -22 c-3 -4 -10
-21 -16 -36 -6 -15 -13 -25 -16 -22 -6 6 23 67 32 67 3 0 3 -4 0 -9z m-62 -48
c-8 -34 -24 -54 -24 -30 0 15 20 57 28 57 1 0 -1 -12 -4 -27z m27 -111 c-6 -2
-9 -7 -7 -10 2 -4 -2 -13 -10 -20 -21 -19 -19 17 3 48 16 23 18 24 21 5 3 -10
-1 -21 -7 -23z m-169 -16 c1 -20 -2 -39 -5 -43 -4 -3 -7 15 -7 42 0 55 10 56
12 1z m682 -326 c36 -65 47 -120 24 -120 -9 0 -9 -3 0 -12 7 -7 12 -24 12 -38
0 -43 13 -44 25 -3 l12 38 13 -43 c10 -32 11 -45 2 -54 -18 -18 -14 -63 6 -81
54 -49 116 -39 150 24 12 22 16 37 9 34 -7 -4 -3 2 8 12 19 17 44 51 73 97 13
20 13 19 7 -8 -3 -15 -13 -35 -20 -43 -8 -8 -15 -20 -15 -26 0 -15 34 28 55
68 14 28 115 144 115 132 0 -19 -78 -142 -129 -204 -33 -40 -57 -73 -52 -73
12 0 128 128 174 191 21 29 42 71 48 95 6 24 19 50 29 59 17 15 17 13 13 -32
-3 -26 -9 -55 -14 -65 -6 -11 -4 -18 7 -22 8 -3 12 -2 9 4 -3 6 -2 10 3 10 19
0 21 -30 4 -42 -26 -19 -136 -138 -128 -138 4 0 38 32 77 70 38 39 76 70 83
70 7 0 23 -11 35 -24 l22 -24 -113 -80 c-131 -92 -151 -112 -146 -144 3 -21 8
-23 53 -22 l50 1 1 -121 c0 -136 29 -306 69 -412 14 -38 20 -64 13 -64 -6 0
-46 16 -89 35 -62 29 -83 34 -98 25 -11 -5 -36 -10 -56 -10 l-36 0 7 -45 c7
-52 1 -57 -20 -16 -10 18 -13 42 -9 65 5 32 2 40 -31 71 -41 38 -89 47 -100
19 -3 -9 -6 -40 -6 -70 l0 -54 -42 0 c-101 0 -116 23 -131 192 -14 148 -7 159
55 96 53 -54 86 -80 73 -58 -4 8 -21 31 -36 51 -26 33 -27 37 -13 57 16 23 6
30 -13 11 -7 -7 -23 12 -53 68 -46 83 -59 146 -52 251 l4 54 25 -37 c37 -54
39 -35 3 28 -25 45 -31 69 -35 133 -4 69 -3 74 6 41 l11 -38 29 31 c39 40 37
61 -2 24 l-32 -29 6 33 c4 18 2 32 -3 32 -6 0 -8 10 -7 22 2 12 -4 51 -13 87
-10 36 -20 89 -24 116 -6 47 -4 44 28 -40 19 -49 50 -119 70 -155z m-768 -154
c-3 -56 -11 -119 -16 -141 -6 -22 -13 -67 -16 -99 -4 -33 -13 -76 -20 -95
l-14 -36 4 35 c2 19 8 71 14 115 21 153 32 262 32 311 1 41 2 46 12 30 7 -13
9 -53 4 -120z m2064 111 c0 -17 -118 -370 -155 -462 -46 -117 -94 -167 -137
-144 -32 16 -58 50 -58 76 0 40 161 434 192 469 16 18 53 42 81 53 62 24 77
25 77 8z m-1068 -179 c-7 -7 -12 -8 -12 -2 0 6 3 14 7 17 3 4 9 5 12 2 2 -3
-1 -11 -7 -17z m353 -47 c-3 -6 -11 -11 -17 -11 -6 0 -6 6 2 15 14 17 26 13
15 -4z m-395 -27 c0 -15 -18 -18 -44 -8 -21 8 -20 22 2 26 24 6 42 -2 42 -18z
m340 -12 c-41 -29 -85 -56 -75 -44 18 19 90 69 94 65 3 -2 -6 -11 -19 -21z
m-537 -292 c22 -32 22 -43 -2 -28 -11 7 -23 24 -26 38 -15 62 -15 65 -2 40 6
-14 20 -36 30 -50z m-2303 -132 c0 -16 -3 -19 -11 -11 -6 6 -8 16 -5 22 11 17
16 13 16 -11z m1360 -99 c0 -6 -7 -36 -16 -66 -11 -39 -19 -52 -25 -42 -13 21
-11 44 8 84 16 34 33 46 33 24z m1181 -37 c18 -15 22 -28 21 -62 -2 -32 5 -54
23 -82 14 -21 29 -38 34 -38 5 0 11 -18 13 -40 2 -22 1 -40 -2 -40 -31 0 -136
133 -146 186 -6 34 10 94 26 94 4 0 18 -8 31 -18z m-1267 -113 c-22 -99 -33
-117 -34 -55 0 45 35 145 47 133 2 -3 -4 -38 -13 -78z m1493 16 c20 -9 43 -21
51 -27 8 -7 35 -19 60 -28 25 -9 47 -21 50 -28 6 -19 -27 -14 -61 10 -18 12
-26 15 -19 8 6 -8 12 -20 12 -27 0 -21 -21 -14 -95 31 -99 61 -97 102 2 61z
m3234 -5 c107 -36 169 -85 255 -198 35 -47 62 -87 60 -89 -2 -2 -41 5 -87 16
-243 58 -429 24 -731 -131 -115 -60 -141 -70 -148 -58 -16 24 -11 57 15 122
14 34 23 63 21 65 -6 7 -46 -16 -88 -49 l-38 -30 0 26 c0 13 -4 28 -10 31 -19
12 -9 22 78 82 158 108 285 169 437 208 112 30 159 31 236 5z m-3526 -90 c14
-27 43 -77 65 -111 58 -90 52 -142 -18 -164 -33 -10 -70 18 -94 72 -11 24 -18
46 -16 48 2 2 23 -5 47 -16 82 -36 75 22 -9 77 -22 15 -41 34 -42 43 0 9 -2
23 -2 31 -1 11 -12 14 -39 13 -35 -2 -37 -1 -37 27 0 30 0 30 60 30 l60 0 25
-50z m225 -20 c0 -10 11 -34 25 -55 15 -20 24 -39 21 -42 -7 -8 -67 27 -61 36
2 5 -2 28 -10 51 -20 57 -19 67 5 45 11 -10 20 -26 20 -35z m161 -29 c10 -11
25 -23 33 -28 8 -4 18 -20 21 -35 8 -33 -6 -36 -59 -14 -39 16 -91 79 -83 100
8 19 62 5 88 -23z m-4250 -27 c26 -13 39 -13 83 -3 69 15 113 1 174 -55 81
-74 118 -204 76 -265 -14 -20 -22 -22 -56 -17 -73 12 -133 54 -181 125 -13 20
-17 22 -22 9 -8 -20 -63 -44 -74 -32 -5 5 -13 23 -19 40 -9 29 -8 33 19 53 37
28 37 47 -1 54 -69 14 -99 100 -37 106 4 1 22 -6 38 -15z m4369 -19 c15 -18 5
-35 -20 -35 -17 0 -40 26 -40 44 0 12 48 5 60 -9z m-284 -54 c15 -15 120 -39
148 -34 18 4 39 -5 75 -31 59 -44 71 -45 71 -7 0 17 4 33 10 36 18 11 113
-156 97 -172 -7 -7 -127 49 -187 87 -57 36 -96 46 -116 29 -13 -10 -21 -9 -47
6 -48 27 -77 56 -77 77 0 20 11 23 26 9z m3471 -58 c76 -23 85 -39 26 -46 -27
-3 -77 -15 -113 -27 -73 -24 -328 -140 -467 -212 -96 -50 -113 -55 -113 -37 0
6 -16 34 -35 63 -19 29 -35 57 -35 62 1 14 177 110 271 148 85 34 178 62 234
68 55 7 179 -3 232 -19z m-3467 -35 c61 -63 67 -78 55 -131 l-10 -48 -30 31
c-55 58 -104 73 -137 44 -16 -15 -18 -15 -24 -1 -4 11 12 37 47 77 30 33 56
60 60 60 4 0 21 -15 39 -32z m3608 6 c49 -34 48 -47 -13 -167 -31 -62 -61
-116 -66 -122 -15 -15 15 63 45 119 34 63 34 114 1 150 -14 15 -25 29 -25 32
0 10 37 3 58 -12z m-3386 -79 c42 -25 106 -54 142 -66 52 -17 70 -29 86 -54
31 -49 27 -54 -37 -48 -76 7 -102 19 -198 87 -121 85 -129 94 -115 111 19 23
40 18 122 -30z m-477 -15 c20 0 30 -21 15 -30 -7 -4 -9 -13 -5 -20 5 -9 24
-11 61 -6 58 7 90 -11 81 -45 -3 -11 0 -22 5 -26 7 -4 8 -1 3 8 -4 8 1 5 12
-7 11 -11 24 -31 28 -44 8 -27 1 -23 -60 25 -22 18 -50 35 -63 39 -48 16 -123
102 -104 120 3 4 8 2 10 -3 2 -6 10 -11 17 -11z m444 -81 c105 -80 121 -87
211 -100 35 -5 75 -16 87 -25 27 -17 83 -91 83 -110 0 -15 -82 -34 -149 -34
-83 0 -107 14 -148 89 -68 125 -117 170 -169 157 -51 -13 -55 -70 -8 -125 l26
-31 -29 0 c-32 0 -70 34 -97 87 -20 40 -20 41 2 45 13 3 7 11 -25 32 -48 32
-62 56 -33 56 18 0 43 -21 83 -69 24 -30 41 -22 45 20 4 49 11 79 20 79 4 0
49 -32 101 -71z m-2360 -21 c6 -18 7 -28 2 -23 -10 12 -25 55 -18 55 3 0 10
-15 16 -32z m1041 -2 c0 -3 -9 -21 -21 -41 -12 -19 -27 -57 -35 -83 l-14 -47
4 56 c5 63 29 119 51 119 8 0 15 -2 15 -4z m947 -51 c9 -25 -4 -29 -17 -6 -7
15 -7 21 0 21 6 0 13 -7 17 -15z m358 -12 c40 -60 85 -133 85 -138 0 -3 -21 6
-48 19 -43 22 -112 98 -112 124 0 26 57 22 75 -5z m-255 -76 c0 -12 -50 35
-50 47 0 5 11 -1 25 -14 14 -13 25 -28 25 -33z m218 -80 c2 -12 -1 -15 -12
-11 -22 8 -30 36 -9 32 10 -2 19 -11 21 -21z m-1169 -18 c36 -13 37 -17 14
-35 -19 -14 -54 -17 -90 -8 -39 11 -25 27 43 54 1 0 15 -5 33 -11z m763 -61
l27 -19 -26 -54 c-31 -62 -42 -66 -104 -34 l-40 20 24 42 c13 23 30 52 36 65
13 24 24 22 83 -20z m258 -24 c0 -18 -5 -18 -35 2 -14 9 -25 25 -25 36 0 19 1
19 30 -2 17 -12 30 -28 30 -36z m0 -54 c24 -22 42 -41 39 -44 -7 -7 -109 62
-109 74 0 20 26 8 70 -30z m54 -103 l31 -18 -43 6 c-71 9 -122 34 -122 59 0
37 10 37 58 3 25 -18 60 -40 76 -50z m83 47 c3 -8 3 -18 0 -21 -8 -8 -57 39
-51 49 7 11 44 -10 51 -28z m113 16 c0 -5 -2 -10 -4 -10 -3 0 -8 5 -11 10 -3
6 -1 10 4 10 6 0 11 -4 11 -10z m165 -51 c10 -29 1 -33 -34 -14 -22 11 -31 23
-31 41 0 24 1 24 29 9 16 -8 33 -24 36 -36z m275 36 c0 -8 -3 -15 -7 -15 -5 0
-37 -5 -72 -11 -42 -6 -67 -7 -74 0 -6 6 4 12 29 16 22 4 53 11 69 15 45 12
55 11 55 -5z m-580 -49 c0 -5 -13 3 -30 19 -16 16 -30 30 -30 32 0 2 14 -6 30
-19 17 -12 30 -26 30 -32z m93 9 c32 -28 34 -35 9 -35 -21 0 -66 43 -55 53 10
11 16 8 46 -18z m309 -3 c4 -15 0 -18 -22 -17 -55 3 -70 35 -16 35 24 0 35 -5
38 -18z m-174 -22 c9 -5 40 -16 67 -24 34 -9 42 -14 25 -15 -30 -1 -120 30
-120 41 0 10 6 10 28 -2z m-2063 -170 c7 -11 -17 -40 -33 -40 -5 0 -15 7 -23
16 -10 13 -10 17 2 25 19 12 46 11 54 -1z m139 -146 c22 -8 10 -24 -19 -24
-29 0 -42 17 -18 23 10 3 19 5 20 6 1 0 8 -2 17 -5z m157 -40 c17 -8 28 -18
25 -21 -8 -8 -136 8 -136 17 0 22 73 24 111 4z m5951 -17 c7 -8 22 -39 32 -71
17 -49 18 -59 5 -70 -24 -24 -409 -49 -409 -27 0 5 42 26 93 46 84 34 98 37
167 33 42 -3 90 -12 108 -20 18 -9 32 -13 32 -8 0 11 -72 39 -122 46 -57 8
-108 24 -108 33 0 7 143 47 177 50 6 1 18 -5 25 -12z m-5889 -64 c-18 -2 -48
-2 -65 0 -18 2 -4 4 32 4 36 0 50 -2 33 -4z m364 -79 c-3 -3 -12 -4 -19 -1 -8
3 -5 6 6 6 11 1 17 -2 13 -5z m1036 -121 c-7 -2 -21 -2 -30 0 -10 3 -4 5 12 5
17 0 24 -2 18 -5z m4145 -18 c33 -13 42 -22 42 -41 0 -19 -5 -24 -26 -24 -52
0 -380 41 -401 50 -32 13 -29 32 5 27 15 -2 59 -1 97 4 104 11 233 4 283 -16z
m-415 -46 c12 -6 32 -21 44 -32 20 -17 23 -18 29 -4 5 13 10 14 32 5 15 -7 36
-20 47 -30 19 -18 15 -18 -158 -15 -99 2 -182 8 -188 14 -6 6 -2 19 11 36 19
24 23 25 36 12 20 -20 43 -19 79 4 36 24 40 24 68 10z m-115 -109 c18 0 31 4
28 8 -2 4 10 7 27 7 18 -1 76 -2 130 -3 75 -2 97 -5 97 -16 0 -18 -31 -26
-105 -27 -80 -1 -44 -17 41 -18 53 -1 62 2 71 21 9 21 15 21 125 19 64 -1 143
3 177 10 52 10 65 9 95 -5 19 -9 37 -16 40 -16 7 0 90 -56 131 -88 31 -25 32
-42 3 -42 -110 -2 -377 -12 -394 -15 -12 -3 -24 -13 -27 -24 -7 -28 -58 -33
-280 -29 l-188 3 -40 42 c-21 23 -39 51 -39 61 0 13 -11 21 -42 28 -39 9 -70
36 -56 49 4 4 25 9 47 12 24 3 41 11 41 19 0 14 59 24 75 12 5 -5 24 -8 43 -8z
m-6641 -8 c7 -5 14 -20 15 -34 2 -19 12 -31 36 -42 61 -30 35 -41 -84 -38
-112 4 -134 11 -134 43 0 14 7 19 29 19 19 0 34 8 45 24 13 21 31 30 71 34 6
1 16 -2 22 -6z m4133 -90 c70 -35 79 -57 21 -49 -42 5 -74 26 -92 59 -14 25 5
23 71 -10z m-3370 -1 c0 -8 -221 -24 -228 -16 -2 2 -1 8 2 13 7 11 226 15 226
3z m5653 -30 c27 -10 45 -36 34 -48 -3 -3 -90 -2 -192 2 -194 8 -206 11 -191
51 6 15 24 16 164 11 86 -3 169 -10 185 -16z m-1388 -49 c19 2 81 -29 117 -60
32 -27 6 -50 -67 -59 -46 -6 -68 -22 -85 -64 -17 -39 -40 -43 -173 -33 -111 9
-112 9 -109 34 1 14 11 41 21 60 36 71 93 165 103 171 6 4 47 -7 92 -22 44
-16 90 -28 101 -27z m-4507 11 c2 -9 -7 -13 -27 -13 -31 0 -42 14 -18 23 19 8
40 3 45 -10z m4660 -29 c12 -4 22 -13 22 -21 0 -17 -36 -9 -60 13 -12 12 -12
14 0 14 8 0 25 -3 38 -6z m-1600 -33 c14 -8 9 -13 -31 -30 -27 -12 -53 -21
-58 -21 -12 0 -40 56 -31 65 9 9 97 -1 120 -14z m-2598 -37 c0 -2 -4 -14 -10
-28 -8 -23 -15 -26 -60 -26 -30 0 -61 7 -75 16 -14 9 -48 20 -77 24 l-53 8 62
-1 c35 0 65 1 67 4 4 4 146 7 146 3z m-2443 -86 c-3 -7 -5 -2 -5 12 0 14 2 19
5 13 2 -7 2 -19 0 -25z"/>
<path d="M5905 6842 c-22 -11 -63 -40 -91 -65 -28 -26 -55 -43 -59 -39 -5 4
-5 1 -1 -6 5 -8 -2 -29 -16 -50 -26 -41 -31 -50 -82 -168 -20 -45 -36 -89 -36
-98 0 -33 31 -76 70 -96 21 -11 41 -24 45 -30 7 -12 -12 -51 -33 -66 -13 -9
-8 -16 29 -37 73 -43 116 -57 172 -57 99 0 145 26 271 153 150 152 153 218 19
367 -191 212 -213 227 -288 192z"/>
<path d="M5641 6688 c0 -10 -5 -18 -11 -18 -5 0 -10 -9 -10 -20 0 -23 18 -27
26 -6 3 8 4 25 1 38 -3 14 -5 17 -6 6z"/>
<path d="M5672 6610 c0 -14 2 -19 5 -12 2 6 2 18 0 25 -3 6 -5 1 -5 -13z"/>
<path d="M5620 6063 c1 -5 15 -24 32 -43 l31 -35 -24 43 c-20 37 -40 55 -39
35z"/>
<path d="M4881 5971 c-16 -10 -6 -31 15 -31 8 0 14 -5 14 -12 0 -6 3 -9 6 -6
3 4 0 18 -8 32 -9 17 -17 23 -27 17z"/>
<path d="M4220 5656 c32 -31 204 -107 375 -166 143 -49 192 -71 238 -106 65
-48 88 -55 80 -24 -14 53 -121 116 -288 170 -107 34 -155 51 -304 106 -104 37
-123 41 -101 20z"/>
<path d="M4171 5586 c2 -2 15 -9 29 -15 24 -11 24 -11 6 3 -16 13 -49 24 -35
12z"/>
<path d="M4096 4701 c-3 -5 -4 -16 0 -24 4 -12 10 -12 30 -3 13 6 22 16 21 21
-5 14 -44 19 -51 6z"/>
<path d="M3384 7232 c4 -7 2 -12 -3 -12 -6 0 -11 -7 -11 -16 0 -11 -5 -14 -17
-9 -14 5 -15 3 -6 -6 13 -13 29 -6 43 21 7 13 7 21 -2 26 -7 4 -8 3 -4 -4z"/>
<path d="M3287 7142 c-19 -21 -22 -32 -7 -32 6 0 10 7 10 15 0 8 5 15 10 15 6
0 10 -7 10 -15 0 -20 16 -19 24 1 9 22 8 26 -5 18 -6 -3 -14 -1 -18 5 -5 8
-13 6 -24 -7z"/>
<path d="M3373 7143 c-18 -7 -16 -23 2 -23 8 0 15 7 15 15 0 8 -1 15 -2 14 -2
0 -9 -3 -15 -6z"/>
<path d="M5392 4600 c0 -14 2 -19 5 -12 2 6 2 18 0 25 -3 6 -5 1 -5 -13z"/>
<path d="M3275 5260 c4 -6 11 -8 16 -5 14 9 11 15 -7 15 -8 0 -12 -5 -9 -10z"/>
<path d="M5260 3159 c0 -5 5 -7 10 -4 6 3 10 8 10 11 0 2 -4 4 -10 4 -5 0 -10
-5 -10 -11z"/>
<path d="M4706 3105 c4 -8 10 -12 15 -9 14 8 10 24 -6 24 -9 0 -12 -6 -9 -15z"/>
<path d="M5089 2933 c-13 -16 -12 -17 4 -4 9 7 17 15 17 17 0 8 -8 3 -21 -13z"/>
<path d="M4681 2924 c0 -11 3 -14 6 -6 3 7 2 16 -1 19 -3 4 -6 -2 -5 -13z"/>
<path d="M4711 2840 c0 -8 8 -31 19 -50 11 -19 19 -28 19 -20 0 8 -8 31 -19
50 -11 19 -19 28 -19 20z"/>
<path d="M4717 2496 c-6 -15 0 -26 15 -26 5 0 6 5 2 12 -5 8 -2 9 10 5 12 -5
16 -3 14 5 -7 19 -35 21 -41 4z"/>
<path d="M4840 2361 c0 -5 -10 -7 -22 -3 -14 3 -19 2 -14 -6 10 -17 46 -15 46
3 0 8 -2 15 -5 15 -3 0 -5 -4 -5 -9z"/>
<path d="M8723 340 c14 -11 36 -20 49 -20 l23 1 -24 19 c-13 11 -35 20 -48 20
l-26 0 26 -20z"/>
<path d="M5200 9320 c-9 -6 -10 -10 -3 -10 6 0 15 5 18 10 8 12 4 12 -15 0z"/>
<path d="M5782 8895 c0 -11 4 -33 8 -50 7 -27 8 -27 8 -5 0 14 -4 36 -8 50 -6
20 -8 21 -8 5z"/>
<path d="M5020 8881 c0 -18 44 -40 80 -41 101 -1 103 2 15 23 -33 8 -68 18
-77 22 -11 4 -18 3 -18 -4z"/>
<path d="M5803 8760 c0 -25 2 -35 4 -22 2 12 2 32 0 45 -2 12 -4 2 -4 -23z"/>
<path d="M6491 8204 c-43 -18 -161 -102 -161 -115 0 -17 17 -9 100 47 60 41
85 53 93 45 17 -17 -17 -71 -66 -105 -51 -36 -33 -46 24 -14 47 26 69 62 69
111 0 42 -15 50 -59 31z"/>
<path d="M5935 7559 c-4 -6 -5 -12 -2 -15 2 -3 7 2 10 11 7 17 1 20 -8 4z"/>
<path d="M7291 5813 c-24 -29 -34 -62 -29 -90 2 -14 14 -19 47 -21 25 -2 56 0
70 3 38 10 7 25 -51 25 -56 0 -58 6 -23 67 28 47 19 58 -14 16z"/>
<path d="M7397 5678 c-7 -26 -62 -58 -101 -58 -13 0 -35 9 -48 20 -23 18 -38
18 -38 0 0 -13 51 -30 91 -30 22 0 53 7 69 15 35 18 56 53 42 67 -6 6 -12 1
-15 -14z"/>
<path d="M7300 5393 c-25 -9 -50 -23 -56 -31 -9 -13 -14 -12 -40 4 l-29 18 19
-22 c11 -12 26 -22 34 -22 19 0 12 -54 -21 -171 -28 -96 -42 -205 -29 -213 6
-3 13 20 17 52 3 31 19 109 35 172 16 63 32 127 35 143 9 46 53 34 167 -45 31
-22 58 -48 61 -59 6 -22 27 -26 27 -4 0 19 10 19 59 -1 48 -19 54 -37 45 -146
-9 -99 -19 -112 -107 -127 -57 -10 -77 -9 -153 9 -48 11 -94 26 -102 32 -11
10 -17 8 -28 -7 -8 -10 -14 -25 -14 -32 0 -8 -8 -26 -17 -40 l-18 -27 31 18
c26 15 37 17 62 8 23 -8 35 -7 49 3 17 13 16 14 -13 15 -16 0 -39 7 -50 16
-19 15 -19 15 1 11 56 -13 128 -33 198 -54 43 -12 88 -23 101 -23 39 0 102 55
141 122 20 35 48 77 61 95 13 17 24 35 24 39 0 15 -53 -42 -77 -83 -14 -24
-27 -43 -30 -43 -2 0 -2 3 1 8 2 4 10 53 16 109 11 90 10 105 -5 137 -10 20
-27 44 -39 52 -21 15 -21 15 4 14 14 -1 30 -1 35 0 18 3 -29 19 -58 19 -16 1
-60 15 -98 31 -86 38 -175 47 -239 23z m222 -40 c48 -16 88 -31 88 -34 0 -11
-90 -19 -134 -13 -38 6 -156 58 -156 69 0 16 125 2 202 -22z m89 -84 c5 -8 9
-22 9 -33 0 -13 -4 -16 -17 -11 -10 4 -40 16 -68 27 -76 29 -76 37 -1 34 45
-2 71 -8 77 -17z m76 -57 c3 -25 -2 -73 -13 -119 l-19 -78 -6 45 c-6 37 -12
189 -10 225 2 26 43 -37 48 -73z m-36 -265 c-18 -32 -75 -58 -111 -50 -17 3
-33 9 -35 14 -6 8 56 23 87 21 10 0 28 12 40 27 25 30 37 22 19 -12z"/>
<path d="M7845 5170 c-4 -6 -1 -17 5 -25 14 -17 110 -79 114 -74 7 9 26 74 26
90 0 37 -27 19 -34 -21 -3 -22 -9 -40 -12 -40 -3 0 -23 18 -45 40 -44 44 -45
45 -54 30z"/>
<path d="M8228 5130 c-27 -21 -81 -118 -121 -217 l-25 -62 21 -28 c23 -29 38
-44 73 -69 19 -13 29 -12 104 12 83 26 230 47 230 33 0 -17 -297 -329 -313
-329 -3 0 -17 20 -31 43 -24 42 -82 93 -173 152 -36 23 -49 27 -85 21 -23 -4
-45 -11 -48 -15 -14 -22 -48 -19 -97 9 -67 39 -67 44 -3 240 52 159 59 187 36
157 -17 -22 -101 -285 -111 -342 l-6 -41 61 -29 c34 -16 76 -29 95 -28 l35 1
0 -47 c0 -47 1 -48 40 -60 56 -17 110 -70 110 -109 0 -17 5 -34 10 -37 6 -4
10 11 10 39 0 37 -5 48 -31 71 -18 14 -54 37 -81 51 -48 24 -49 26 -46 66 4
59 25 68 85 39 69 -33 144 -94 182 -146 18 -25 40 -45 50 -45 16 0 270 247
321 313 16 20 30 27 58 28 36 0 36 1 12 12 -14 6 -26 12 -28 12 -1 1 18 33 44
71 41 62 104 175 104 189 0 3 -4 5 -8 5 -5 0 -28 -35 -51 -78 -23 -43 -59
-100 -79 -127 l-38 -50 -79 -7 c-44 -4 -114 -19 -156 -33 -42 -14 -85 -25 -96
-25 -10 0 -36 18 -58 40 l-38 39 18 48 c29 78 81 176 108 205 25 27 26 27 74
13 26 -9 88 -24 138 -36 49 -11 95 -25 102 -31 20 -16 29 0 11 19 -14 13 -256
82 -294 83 -6 0 -23 -9 -36 -20z"/>
<path d="M8454 5003 c-36 -55 -84 -146 -80 -150 2 -3 17 17 32 44 15 26 41 67
56 91 16 23 25 42 20 42 -6 0 -18 -12 -28 -27z"/>
<path d="M6320 4940 c0 -5 14 -7 33 -3 45 8 47 13 4 13 -20 0 -37 -4 -37 -10z"/>
<path d="M7557 4623 c-15 -15 -5 -23 21 -17 41 10 51 24 16 24 -17 0 -34 -3
-37 -7z"/>
<path d="M8625 4349 c-33 -22 -93 -58 -133 -81 -88 -49 -132 -84 -132 -105 0
-9 48 -89 106 -179 l107 -164 40 0 c32 0 64 14 157 70 65 38 120 75 123 82 5
15 -82 255 -114 313 -32 58 -70 105 -83 104 -6 0 -38 -18 -71 -40z m118 -46
c33 -54 108 -238 122 -303 5 -23 -4 -31 -111 -94 -64 -38 -127 -71 -140 -74
-19 -3 -29 6 -61 58 -21 35 -69 106 -106 159 -38 54 -67 104 -65 115 2 13 35
36 98 69 52 27 120 69 150 93 30 23 60 41 65 40 6 -2 27 -30 48 -63z"/>
<path d="M8621 4273 c-44 -51 -52 -70 -22 -54 22 12 81 78 81 91 0 21 -19 8
-59 -37z"/>
<path d="M8005 3890 c-8 -13 5 -13 25 0 13 8 13 10 -2 10 -9 0 -20 -4 -23 -10z"/>
<path d="M8100 3846 c0 -10 71 -47 83 -43 7 2 -3 13 -23 25 -32 20 -60 28 -60
18z"/>
<path d="M8090 3799 c19 -19 37 -33 39 -32 7 4 -32 44 -54 56 -11 5 -4 -5 15
-24z"/>
<path d="M8080 3786 c0 -2 8 -10 18 -17 15 -13 16 -12 3 4 -13 16 -21 21 -21
13z"/>
<path d="M1951 3627 c2 -1 13 -9 24 -17 19 -14 19 -14 6 3 -7 9 -18 17 -24 17
-6 0 -8 -1 -6 -3z"/>
<path d="M1930 3600 c-9 -6 -10 -10 -3 -10 6 0 15 5 18 10 8 12 4 12 -15 0z"/>
<path d="M2000 3596 c0 -4 14 -21 30 -36 28 -26 40 -51 42 -87 1 -7 5 -13 10
-13 5 0 6 -5 2 -12 -4 -6 -3 -8 4 -4 6 3 18 -4 26 -16 20 -29 20 -39 -1 -31
-14 6 -15 1 -9 -38 7 -46 56 -133 64 -111 2 7 8 10 13 7 13 -9 0 54 -22 101
-10 22 -19 47 -19 56 0 8 -8 26 -19 39 -10 13 -21 33 -25 44 -6 22 -96 115
-96 101z"/>
<path d="M1974 3537 c-14 -16 1 -73 21 -81 18 -7 18 -4 3 29 -16 35 4 57 29
32 15 -15 16 -20 5 -38 -17 -27 -9 -35 12 -14 20 21 20 28 -1 53 -23 26 -55
35 -69 19z"/>
<path d="M8371 3536 c-60 -15 -151 -56 -151 -67 0 -4 12 -4 28 1 15 5 49 16
76 25 82 25 181 31 211 11 25 -16 35 -46 15 -46 -6 0 -27 9 -47 20 -47 25 -60
25 -73 1 -15 -29 -13 -30 26 -19 26 7 44 6 65 -2 37 -16 59 -7 59 23 0 57 -95
81 -209 53z"/>
<path d="M2014 3422 c8 -8 19 -11 25 -8 20 13 12 26 -14 24 -21 -2 -23 -4 -11
-16z"/>
<path d="M8295 3360 c-18 -20 -18 -25 9 -120 9 -30 16 -80 16 -110 1 -148 54
-247 147 -275 53 -15 147 35 178 96 17 32 19 96 5 133 -12 32 -35 35 -26 4 17
-58 18 -96 1 -131 -30 -65 -123 -103 -185 -77 -78 32 -114 222 -72 377 14 53
16 70 6 66 -12 -4 -33 -81 -35 -126 0 -21 -1 -21 -8 -2 -5 11 -14 50 -21 87
-11 55 -11 70 0 82 18 23 6 20 -15 -4z"/>
<path d="M8509 3341 c-30 -24 -25 -28 25 -21 38 5 38 5 19 23 -19 17 -21 17
-44 -2z"/>
<path d="M8430 3320 c36 -11 50 -11 50 0 0 6 -17 10 -37 9 -34 -1 -35 -2 -13
-9z"/>
<path d="M8601 3201 c-13 -18 -21 -34 -19 -37 8 -8 50 44 46 57 -2 7 -14 -1
-27 -20z"/>
<path d="M2223 3173 c-1 -10 5 -36 12 -58 14 -42 85 -196 94 -205 18 -16 50
-100 45 -116 -5 -15 -4 -16 5 -4 8 12 11 11 17 -5 4 -11 15 -31 24 -45 9 -14
28 -54 42 -90 14 -36 38 -87 52 -115 15 -27 24 -55 21 -63 -2 -7 -1 -10 5 -7
9 5 48 -72 91 -179 11 -28 25 -58 29 -66 5 -8 35 -64 66 -125 66 -128 95 -178
100 -172 6 6 -20 65 -138 307 -58 118 -111 233 -118 254 -7 22 -25 60 -39 85
-44 76 -127 251 -156 329 -15 40 -33 78 -40 86 -7 7 -34 56 -59 109 -26 53
-48 97 -50 97 -1 0 -3 -8 -3 -17z"/>
<path d="M2214 3054 c3 -9 6 -20 6 -25 0 -5 9 -9 20 -9 11 0 20 -5 20 -12 0
-6 2 -9 5 -6 11 10 -7 37 -21 31 -9 -3 -14 2 -14 16 0 12 -5 21 -11 21 -6 0
-8 -7 -5 -16z"/>
<path d="M8537 3003 c-11 -10 -8 -25 4 -18 6 4 17 -1 25 -11 13 -17 13 -16 3
9 -12 27 -20 32 -32 20z"/>
<path d="M2330 2809 c8 -44 16 -57 28 -44 4 4 1 10 -5 12 -7 3 -13 18 -13 33
0 16 -4 31 -9 34 -4 3 -5 -13 -1 -35z"/>
<path d="M8473 2594 c3 -3 34 -8 69 -11 72 -6 105 -19 125 -50 13 -19 12 -24
-6 -42 -36 -36 -96 -28 -172 20 -56 37 -139 75 -139 64 0 -9 137 -134 186
-168 33 -24 54 -46 54 -58 0 -23 -17 -24 -44 -4 -22 16 -46 20 -46 7 0 -5 11
-14 24 -20 14 -6 42 -27 63 -45 l38 -35 1 62 c1 58 -1 63 -32 90 -43 36 -43
46 -1 39 26 -4 40 1 65 22 49 41 39 95 -23 121 -33 13 -175 20 -162 8z"/>
<path d="M2440 2583 c0 -5 7 -18 15 -29 15 -18 15 -18 13 5 -3 23 -28 44 -28
24z"/>
<path d="M8610 2520 c19 -13 30 -13 30 0 0 6 -10 10 -22 10 -19 0 -20 -2 -8
-10z"/>
<path d="M2490 2433 c0 -5 12 -21 26 -38 26 -29 26 -29 19 -5 -4 14 -12 31
-17 38 -11 13 -28 16 -28 5z"/>
<path d="M8390 2360 c0 -5 4 -10 9 -10 6 0 13 5 16 10 3 6 -1 10 -9 10 -9 0
-16 -4 -16 -10z"/>
<path d="M2585 2260 c3 -5 8 -10 11 -10 2 0 4 5 4 10 0 6 -5 10 -11 10 -5 0
-7 -4 -4 -10z"/>
<path d="M2655 2178 c-8 -20 2 -41 16 -33 5 4 9 1 9 -6 0 -7 3 -10 6 -7 3 4
-1 19 -9 35 -13 23 -17 25 -22 11z"/>
<path d="M2750 2001 c0 -6 4 -13 10 -16 6 -3 7 1 4 9 -7 18 -14 21 -14 7z"/>
<path d="M2760 1911 c0 -20 17 -37 27 -28 7 8 -7 47 -18 47 -5 0 -9 -9 -9 -19z"/>
<path d="M2815 1720 c-3 -6 4 -24 16 -42 27 -37 37 -22 14 21 -17 34 -21 36
-30 21z"/>
<path d="M2861 1715 c0 -5 4 -19 8 -29 7 -19 8 -19 13 2 4 12 2 20 -2 17 -5
-3 -11 1 -13 7 -3 7 -5 9 -6 3z"/>
<path d="M2913 1554 c-3 -9 -1 -32 5 -51 6 -19 8 -42 5 -51 -4 -9 -2 -13 4 -9
12 7 33 -34 33 -66 0 -17 2 -19 9 -8 8 12 11 12 23 0 19 -19 22 -30 9 -38 -7
-5 -8 -18 -1 -40 5 -19 7 -39 3 -45 -3 -6 -2 -7 2 -3 5 4 34 -43 65 -105 43
-89 60 -114 78 -116 36 -5 77 54 45 65 -7 3 -13 0 -13 -6 0 -6 -8 -11 -17 -11
-17 1 -17 1 0 11 19 11 24 73 7 84 -6 4 -7 11 -4 17 4 6 3 8 -3 5 -5 -3 -18 8
-28 26 -10 18 -23 35 -29 39 -6 4 -11 11 -12 15 0 4 -4 24 -8 44 -7 34 -10 37
-37 32 -22 -3 -29 0 -29 11 0 9 -4 16 -10 16 -5 0 -1 9 11 21 16 16 19 27 13
47 -4 15 -7 34 -8 43 0 10 -7 14 -18 11 -20 -5 -24 8 -8 24 6 6 5 17 -6 32
-18 26 -71 30 -81 6z m227 -411 c0 -22 -2 -25 -10 -13 -13 20 -13 40 0 40 6 0
10 -12 10 -27z"/>
<path d="M4010 1371 c8 -5 31 -12 50 -16 19 -4 68 -18 109 -31 40 -14 75 -23
78 -20 3 3 -3 8 -13 12 -10 3 -41 14 -69 24 -91 34 -197 55 -155 31z"/>
<path d="M8634 1278 c9 -13 20 -33 25 -45 13 -28 28 -36 35 -18 3 9 -8 30 -25
50 -34 39 -61 48 -35 13z"/>
<path d="M3244 1012 l-1 -37 13 30 c12 29 10 45 -4 45 -4 0 -7 -17 -8 -38z"/>
<path d="M3221 823 c-1 -22 48 -112 62 -113 4 0 5 12 2 28 -3 15 -2 21 2 12
37 -71 69 -80 78 -22 10 57 11 58 24 34 10 -18 10 -27 0 -38 -6 -8 -8 -14 -3
-14 24 0 -36 -29 -61 -30 l-30 -1 28 -15 c53 -28 104 0 112 61 3 25 1 35 -4
26 -7 -11 -10 -10 -15 6 -4 11 -18 31 -32 44 -22 21 -24 21 -18 4 7 -20 7 -20
-15 0 l-23 20 24 6 c22 7 22 7 -4 8 -19 1 -28 -4 -28 -14 0 -8 -4 -15 -8 -15
-5 0 -14 -10 -21 -22 -6 -13 -10 -16 -7 -7 2 9 -1 22 -7 28 -9 9 -8 11 4 6 10
-4 20 -1 24 5 5 8 0 11 -16 8 -13 -1 -29 -14 -36 -28 -12 -25 -16 -22 -26 25
-4 18 -5 18 -6 -2z m46 -48 c0 -8 -4 -15 -9 -15 -10 0 -11 14 -1 23 9 10 10 9
10 -8z"/>
<path d="M3491 644 c0 -11 3 -14 6 -6 3 7 2 16 -1 19 -3 4 -6 -2 -5 -13z"/>
<path d="M3460 641 c0 -6 4 -13 10 -16 6 -3 7 1 4 9 -7 18 -14 21 -14 7z"/>
<path d="M3480 590 c0 -5 7 -10 15 -10 8 0 15 5 15 10 0 6 -7 10 -15 10 -8 0
-15 -4 -15 -10z"/>
<path d="M4480 402 c0 -6 24 -16 53 -22 101 -24 205 -60 231 -81 29 -23 47
-19 27 5 -37 44 -311 130 -311 98z"/>
<path d="M3975 355 c35 -29 160 -95 228 -120 43 -16 48 -21 42 -42 -5 -22 -3
-24 17 -18 26 8 198 114 198 122 0 12 -58 -11 -106 -43 -29 -19 -61 -35 -71
-36 -10 0 -78 36 -152 81 -78 47 -145 81 -160 81 l-26 -1 30 -24z"/>
<path d="M3475 351 c-10 -18 35 -33 76 -26 49 8 50 21 2 29 -53 8 -71 8 -78
-3z"/>
<path d="M4555 299 c-9 -14 27 -26 96 -33 76 -8 103 7 42 23 -57 14 -133 20
-138 10z"/>
<path d="M4680 198 c-14 -5 -47 -6 -75 -2 l-50 6 20 -22 c15 -16 27 -20 48
-16 15 3 37 0 47 -6 24 -15 43 0 38 30 -2 16 -7 18 -28 10z"/>
<path d="M2146 116 c3 -13 1 -26 -4 -30 -10 -6 -95 -23 -197 -38 -94 -14 -148
-28 -141 -36 8 -8 285 -10 284 -2 -3 34 27 43 37 10 4 -14 15 -20 35 -20 25 0
28 4 32 38 7 54 -9 102 -33 102 -15 0 -18 -5 -13 -24z"/>
<path d="M3240 120 c0 -10 9 -24 20 -30 18 -10 20 -8 20 20 0 23 -4 30 -20 30
-13 0 -20 -7 -20 -20z"/>
<path d="M6129 66 c22 -26 98 -68 117 -64 18 3 -64 60 -108 73 -21 7 -21 6 -9
-9z"/>
<path d="M1715 10 l-30 -8 37 -1 c20 0 40 4 43 9 7 11 -6 11 -50 0z"/>
</g>
</svg>
